<svg xmlns="http://www.w3.org/2000/svg" viewBox="0 0 484.02 87.58">
  <path d="m256.24 46.29-4.57-2.64 4.57-2.64a.5.5 0 0 0 .18-.67l-1.16-2.01a.5.5 0 0 0-.67-.18l-4.57 2.64v-5.28a.49.49 0 0 0-.49-.49h-2.33a.49.49 0 0 0-.49.49v5.28l-4.57-2.64a.493.493 0 0 0-.67.18l-1.16 2.01c-.14.23-.05.53.18.67l4.57 2.64-4.57 2.64a.5.5 0 0 0-.18.67l1.16 2.02a.5.5 0 0 0 .67.18l4.57-2.64v5.28c0 .27.22.49.49.49h2.33c.27 0 .49-.22.49-.49v-5.28l4.57 2.64c.23.14.53.05.67-.18l1.16-2.02c.14-.23.06-.53-.18-.67M118.86 78.6V8.7h24.46c15.11 0 26.92 5.29 26.92 21.44s-12.94 21.91-27.3 21.91h-12.37v26.54h-11.71Zm11.71-36.84h12.94c10.39 0 15.11-3.21 15.11-11.24s-4.72-11.05-15.21-11.05h-12.85v22.29Zm45.91 1.7c0-23.42 13.13-36.08 30.7-36.08 16.25 0 23.99 8.97 27.11 21.72l-11.24 3.21c-2.64-9.26-6.71-13.98-15.96-13.98-11.81 0-18.7 9.16-18.7 25.03s7.08 25.79 18.89 25.79c9.07 0 14.17-4.53 16.81-15.02l11.24 2.55c-3.4 13.89-12 23.24-28.15 23.24-17.95 0-30.7-12.37-30.7-36.46M265.4 78.6V8.7h15.58l18.7 55.44h.19L318.01 8.7h15.87v69.9h-11.43V26.46h-.19c-1.04 4.82-2.55 9.35-4.16 14.26L304.5 78.6h-10.48l-13.51-37.88c-1.7-5.01-2.74-8.03-4.25-14.73h-.19V78.6zm79.48-58.85V9.64h11.9v10.11zm.1 58.85V28.44h11.71V78.6zm22.79 0V8.7h11.71v69.9zm20.08-25.03c0-19.08 13.51-26.07 23.9-26.07 11.24 0 22.01 6.71 22.01 27.11v2.74h-34.29c.47 9.07 6.05 13.03 13.41 13.03 6.52 0 10.3-2.17 14.07-5.86l6.14 6.05c-5.2 5.76-12.09 9.07-21.06 9.07-12.56 0-24.18-7.65-24.18-26.07m35.23-4.91c-.66-7.65-4.44-11.71-11.43-11.71-5.67 0-10.86 3.21-12 11.71h23.42Zm18.99 29.94V28.44h11.62v8.22h.19c3.12-5.01 8.5-9.16 18.04-9.16h.76l-.38 10.67c-.57-.09-2.46-.19-3.12-.19-7.46 0-12.18 3.5-15.49 8.88V78.6zM84.37 19.99c-.8-4.52-1.7-6.97-1.7-6.97l-.04.02C81.08 7.87 76.71-.01 76.71-.01H8.51S5.48 5.2 4.23 8.53c-.01.04-.01.07-.02.1-.31.8-.6 1.49-.88 2.29-.15.4-.33 1.02-.47 1.55l81.52 7.52ZM2.16 14.95C1.64 16.91.88 20.35.38 25.09v.01c-.06.67-.13 1.35-.19 2.06-.33 4.37-.19 8.68.48 12.63 2.57 13.85 9.7 29.54 41.31 47.32.28.16.55.32.83.48.28-.16.55-.31.83-.47C75.25 69.35 82.38 53.65 84.96 39.8c.14-.84.25-1.7.35-2.57zm468.92 57.49c0-3.64 2.86-6.5 6.5-6.5s6.44 2.83 6.44 6.47-2.83 6.52-6.47 6.52-6.47-2.83-6.47-6.5Zm11.81 0c0-3.05-2.32-5.43-5.35-5.43s-5.32 2.35-5.32 5.4 2.32 5.46 5.35 5.46 5.32-2.35 5.32-5.43m-7.83-3.7h2.66c1.68 0 2.66.73 2.66 2.18 0 1.15-.56 1.74-1.4 2.02l1.54 2.91h-1.48l-1.43-2.72h-1.12v2.72h-1.43zm2.57 3.31c.87 0 1.34-.28 1.34-1.04 0-.7-.48-1.01-1.37-1.01h-1.12v2.04h1.15Z" style="fill:#fff;stroke-width:0"/>
</svg>
