 <svg width="182" height="144" viewBox="0 0 182 144" fill="none" xmlns="http://www.w3.org/2000/svg">
            <ellipse cx="113.162" cy="143.076" rx="112.316" ry="9.65855" fill="#40A9FF" />
            <path
                d="M196.949 138.895H107.838V118.164L196.949 118.164C197.904 118.164 198.678 118.882 198.678 119.768V137.291C198.678 138.177 197.904 138.895 196.949 138.895Z"
                fill="#096DD9"
            />
            <path
                opacity="0.2"
                d="M196.949 138.895H107.838V118.164L196.949 118.164C197.904 118.164 198.678 118.882 198.678 119.768V137.291C198.678 138.177 197.904 138.895 196.949 138.895Z"
                fill="#262626"
            />
            <rect
                opacity="0.2"
                x="143.319"
                y="138.895"
                width="13.6336"
                height="20.7312"
                transform="rotate(180 143.319 138.895)"
                fill="#262626"
            />
            <rect
                opacity="0.2"
                x="156.088"
                y="138.895"
                width="6.9126"
                height="20.7312"
                transform="rotate(180 156.088 138.895)"
                fill="#262626"
            />
            <path
                d="M78.3197 118.163H107.833V138.894H78.3197C77.3598 138.894 76.5815 138.172 76.5815 137.282V119.776C76.5815 118.885 77.3598 118.163 78.3197 118.163V118.163Z"
                fill="#096DD9"
            />
            <path
                opacity="0.9"
                d="M76.5815 120.395H102.4C103.653 120.395 104.669 121.337 104.669 122.499V134.56C104.669 135.118 104.43 135.653 104.004 136.048C103.579 136.443 103.002 136.664 102.4 136.664H76.5815V120.395Z"
                fill="white"
            />
            <ellipse opacity="0.2" cx="186.189" cy="128.532" rx="6.39115" ry="5.9291" fill="#262626" />
            <path
                d="M203.403 118.147L114.265 118.147V103.101L203.403 103.101C204.358 103.101 205.132 103.82 205.132 104.706V116.56C205.122 117.439 204.351 118.148 203.403 118.147Z"
                fill="#262626"
            />
            <path
                opacity="0.2"
                d="M203.403 118.147L114.265 118.147V103.101L203.403 103.101C204.358 103.101 205.132 103.82 205.132 104.706V116.56C205.122 117.439 204.351 118.148 203.403 118.147Z"
                fill="#262626"
            />
            <path
                d="M84.7689 103.136H114.282V118.182H84.7689C83.809 118.182 83.0308 117.46 83.0308 116.569V104.732C83.0405 103.848 83.8159 103.136 84.7689 103.136V103.136Z"
                fill="#262626"
            />
            <path
                opacity="0.9"
                d="M83.0171 105.347H108.867C110.12 105.347 111.135 106.289 111.135 107.451V113.839C111.138 114.399 110.9 114.936 110.474 115.333C110.048 115.729 109.47 115.952 108.867 115.952H83.0171V105.347Z"
                fill="white"
            />
            <rect
                opacity="0.3"
                x="197.158"
                y="114.6"
                width="66.0864"
                height="7.92201"
                rx="3.961"
                transform="rotate(180 197.158 114.6)"
                fill="#096DD9"
            />
            <rect
                opacity="0.3"
                x="120.031"
                y="118.163"
                width="2.3666"
                height="15.046"
                transform="rotate(180 120.031 118.163)"
                fill="#096DD9"
            />
            <rect
                opacity="0.3"
                x="124.351"
                y="118.163"
                width="2.3666"
                height="15.046"
                transform="rotate(180 124.351 118.163)"
                fill="#096DD9"
            />
            <path
                d="M193.535 103.119L104.429 103.119V87.5811L193.535 87.5811C194.49 87.5811 195.265 88.2993 195.265 89.1853V101.515C195.265 102.401 194.49 103.119 193.535 103.119Z"
                fill="#096DD9"
            />
            <path
                opacity="0.3"
                d="M193.535 103.119L104.429 103.119V87.5811L193.535 87.5811C194.49 87.5811 195.265 88.2993 195.265 89.1853V101.515C195.265 102.401 194.49 103.119 193.535 103.119Z"
                fill="#262626"
            />
            <rect
                opacity="0.9"
                x="157.215"
                y="103.119"
                width="30.9396"
                height="15.5215"
                transform="rotate(180 157.215 103.119)"
                fill="white"
            />
            <rect
                opacity="0.9"
                x="186.195"
                y="103.119"
                width="15.6882"
                height="15.5215"
                transform="rotate(180 186.195 103.119)"
                fill="white"
            />
            <path
                d="M74.9149 87.5967H104.41V103.135H74.9149C74.4539 103.135 74.0118 102.965 73.6859 102.662C73.3599 102.36 73.1768 101.95 73.1768 101.522V89.2092C73.1768 88.3186 73.955 87.5967 74.9149 87.5967V87.5967Z"
                fill="#096DD9"
            />
            <path
                opacity="0.9"
                d="M73.1768 89.8232H98.9954C100.248 89.8232 101.264 90.7655 101.264 91.9278V98.7872C101.264 99.9495 100.248 100.892 98.9954 100.892H73.1768V89.8232Z"
                fill="white"
            />
            <path
                d="M199.98 87.5967L110.874 87.5967V77.3014L199.98 77.3014C200.935 77.3014 201.709 78.0196 201.709 78.9056V85.9924C201.709 86.8784 200.935 87.5967 199.98 87.5967Z"
                fill="#096DD9"
            />
            <path
                opacity="0.3"
                d="M199.98 87.5967L110.874 87.5967V77.3014L199.98 77.3014C200.935 77.3014 201.709 78.0196 201.709 78.9056V85.9924C201.709 86.8784 200.935 87.5967 199.98 87.5967Z"
                fill="white"
            />
            <path
                opacity="0.2"
                d="M199.98 87.5967L110.874 87.5967V77.3014L199.98 77.3014C200.935 77.3014 201.709 78.0196 201.709 78.9056V85.9924C201.709 86.8784 200.935 87.5967 199.98 87.5967Z"
                fill="#262626"
            />
            <path
                d="M81.3593 77.3022H110.873V87.5975H81.3593C80.3993 87.5975 79.6211 86.8756 79.6211 85.985V78.9148C79.6211 78.0242 80.3993 77.3022 81.3593 77.3022Z"
                fill="#096DD9"
            />
            <path
                opacity="0.3"
                d="M81.3593 77.3022H110.873V87.5975H81.3593C80.3993 87.5975 79.6211 86.8756 79.6211 85.985V78.9148C79.6211 78.0242 80.3993 77.3022 81.3593 77.3022Z"
                fill="white"
            />
            <path
                opacity="0.9"
                d="M79.6211 79.5298H105.435C106.688 79.5298 107.704 80.472 107.704 81.6343V83.2882C107.682 84.4359 106.673 85.3557 105.435 85.3555H79.6211V79.5298Z"
                fill="white"
            />
            <rect
                opacity="0.4"
                x="159.234"
                y="84.8853"
                width="40.3881"
                height="4.86649"
                transform="rotate(180 159.234 84.8853)"
                fill="#262626"
            />
            <path
                d="M126.205 73.895H138.947V77.3061H126.205C126.047 77.3061 125.919 77.1876 125.919 77.0415V74.1472C125.927 74.006 126.052 73.8949 126.205 73.895Z"
                fill="#096DD9"
            />
            <path
                opacity="0.2"
                d="M126.205 73.895H138.947V77.3061H126.205C126.047 77.3061 125.919 77.1876 125.919 77.0415V74.1472C125.927 74.006 126.052 73.8949 126.205 73.895Z"
                fill="#262626"
            />
            <path
                d="M143.804 77.31H138.964V73.8989H143.822C143.98 73.8989 144.107 74.0174 144.107 74.1635V77.0578C144.104 77.1288 144.07 77.1955 144.013 77.2429C143.956 77.2903 143.881 77.3145 143.804 77.31Z"
                fill="#096DD9"
            />
            <path
                opacity="0.9"
                d="M144.094 76.9424H139.847C139.64 76.9424 139.472 76.7869 139.472 76.5951V74.6104C139.472 74.4186 139.64 74.2631 139.847 74.2631H144.094V76.9424V76.9424Z"
                fill="white"
            />
            <path
                d="M125.144 71.4185H137.886V73.8993H125.144C124.986 73.8993 124.858 73.7808 124.858 73.6346V71.6872C124.857 71.6163 124.887 71.5479 124.94 71.4974C124.994 71.4469 125.067 71.4184 125.144 71.4185Z"
                fill="#262626"
            />
            <path
                opacity="0.2"
                d="M125.144 71.4185H137.886V73.8993H125.144C124.986 73.8993 124.858 73.7808 124.858 73.6346V71.6872C124.857 71.6163 124.887 71.5479 124.94 71.4974C124.994 71.4469 125.067 71.4184 125.144 71.4185Z"
                fill="#262626"
            />
            <path
                d="M142.744 73.897H137.886V71.4162H142.744C142.902 71.4162 143.029 71.5347 143.029 71.6808V73.6282C143.03 73.6991 143.001 73.7675 142.947 73.818C142.894 73.8685 142.82 73.897 142.744 73.897Z"
                fill="#262626"
            />
            <path
                opacity="0.9"
                d="M143.034 73.5308H138.786C138.687 73.5308 138.592 73.4942 138.522 73.429C138.451 73.3639 138.412 73.2756 138.412 73.1835V72.1332C138.412 71.9414 138.58 71.7859 138.786 71.7859H143.034V73.5308L143.034 73.5308Z"
                fill="white"
            />
            <path
                d="M126.766 68.8672H139.508V71.4224H126.766C126.609 71.4224 126.481 71.3039 126.481 71.1578V69.1318C126.481 69.0616 126.511 68.9943 126.565 68.9447C126.618 68.8951 126.691 68.8672 126.766 68.8672Z"
                fill="#096DD9"
            />
            <path
                opacity="0.3"
                d="M126.766 68.8672H139.508V71.4224H126.766C126.609 71.4224 126.481 71.3039 126.481 71.1578V69.1318C126.481 69.0616 126.511 68.9943 126.565 68.9447C126.618 68.8951 126.691 68.8672 126.766 68.8672Z"
                fill="#262626"
            />
            <path
                d="M144.367 71.4185H139.509V68.8632H144.367C144.524 68.8632 144.652 68.9817 144.652 69.1279V71.1497C144.653 71.2206 144.623 71.289 144.57 71.3395C144.516 71.39 144.443 71.4185 144.367 71.4185Z"
                fill="#096DD9"
            />
            <path
                opacity="0.9"
                d="M144.652 71.0552H140.404C140.198 71.0552 140.03 70.8997 140.03 70.7079V69.5791C140.03 69.3873 140.198 69.2318 140.404 69.2318H144.652V71.0552Z"
                fill="white"
            />
            <path
                d="M125.705 67.1631H138.447V68.8583H125.705C125.547 68.8583 125.419 68.7398 125.419 68.5937V67.4277C125.419 67.2816 125.547 67.1631 125.705 67.1631Z"
                fill="#096DD9"
            />
            <path
                opacity="0.3"
                d="M125.705 67.1631H138.447V68.8583H125.705C125.547 68.8583 125.419 68.7398 125.419 68.5937V67.4277C125.419 67.2816 125.547 67.1631 125.705 67.1631Z"
                fill="white"
            />
            <path
                opacity="0.2"
                d="M125.705 67.1631H138.447V68.8583H125.705C125.547 68.8583 125.419 68.7398 125.419 68.5937V67.4277C125.419 67.2816 125.547 67.1631 125.705 67.1631Z"
                fill="#262626"
            />
            <path
                d="M143.31 68.8765H138.452V67.1813H143.31C143.467 67.1813 143.595 67.2997 143.595 67.4459V68.6077C143.596 68.6786 143.567 68.747 143.513 68.7975C143.46 68.848 143.386 68.8765 143.31 68.8765Z"
                fill="#096DD9"
            />
            <path
                opacity="0.3"
                d="M143.31 68.8765H138.452V67.1813H143.31C143.467 67.1813 143.595 67.2997 143.595 67.4459V68.6077C143.596 68.6786 143.567 68.747 143.513 68.7975C143.46 68.848 143.386 68.8765 143.31 68.8765Z"
                fill="white"
            />
            <path
                opacity="0.9"
                d="M143.59 68.4995H139.343C139.136 68.4995 138.969 68.344 138.969 68.1522V67.8834C138.969 67.6916 139.136 67.5361 139.343 67.5361H143.59V68.4954V68.4995Z"
                fill="white"
            />
            <path
                d="M125.144 64.6826H137.886V67.1634H125.144C124.986 67.1634 124.858 67.0449 124.858 66.8988V64.9514C124.857 64.8805 124.887 64.8121 124.94 64.7616C124.994 64.7111 125.067 64.6826 125.144 64.6826Z"
                fill="#262626"
            />
            <path
                opacity="0.2"
                d="M125.144 64.6826H137.886V67.1634H125.144C124.986 67.1634 124.858 67.0449 124.858 66.8988V64.9514C124.857 64.8805 124.887 64.8121 124.94 64.7616C124.994 64.7111 125.067 64.6826 125.144 64.6826Z"
                fill="#262626"
            />
            <path
                d="M141.126 67.1853H137.899V64.7045H141.139C141.297 64.7045 141.424 64.8229 141.424 64.9691V66.9165C141.426 66.9896 141.394 67.0599 141.338 67.1109C141.281 67.1618 141.204 67.1887 141.126 67.1853Z"
                fill="#262626"
            />
            <path
                opacity="0.9"
                d="M141.416 66.8052H138.786C138.579 66.8052 138.412 66.6497 138.412 66.4579V65.4077C138.412 65.2158 138.579 65.0603 138.786 65.0603H141.416V66.8052H141.416Z"
                fill="white"
            />
            <path
                d="M126.766 62.1396H139.508V64.6825H126.766C126.609 64.6825 126.481 64.564 126.481 64.4178V62.3919C126.488 62.2506 126.614 62.1395 126.766 62.1396Z"
                fill="#096DD9"
            />
            <path
                opacity="0.3"
                d="M126.766 62.1396H139.508V64.6825H126.766C126.609 64.6825 126.481 64.564 126.481 64.4178V62.3919C126.488 62.2506 126.614 62.1395 126.766 62.1396Z"
                fill="#262626"
            />
            <path
                d="M142.748 64.6963H139.508V62.1535H142.748C142.906 62.1535 143.034 62.2719 143.034 62.4181V64.4399C143.029 64.5828 142.903 64.6964 142.748 64.6963Z"
                fill="#096DD9"
            />
            <path
                opacity="0.9"
                d="M143.034 64.3276H140.404C140.197 64.3276 140.03 64.1721 140.03 63.9803V62.8516C140.03 62.6597 140.197 62.5043 140.404 62.5043H143.034V64.3276H143.034Z"
                fill="white"
            />
            <path
                d="M125.705 60.4487H138.447V62.1439H125.705C125.547 62.1439 125.419 62.0255 125.419 61.8793V60.7133C125.419 60.5672 125.547 60.4487 125.705 60.4487Z"
                fill="#096DD9"
            />
            <path
                opacity="0.3"
                d="M125.705 60.4487H138.447V62.1439H125.705C125.547 62.1439 125.419 62.0255 125.419 61.8793V60.7133C125.419 60.5672 125.547 60.4487 125.705 60.4487Z"
                fill="white"
            />
            <path
                opacity="0.2"
                d="M125.705 60.4487H138.447V62.1439H125.705C125.547 62.1439 125.419 62.0255 125.419 61.8793V60.7133C125.419 60.5672 125.547 60.4487 125.705 60.4487Z"
                fill="#262626"
            />
            <path
                d="M141.692 62.1396H138.452V60.4444H141.692C141.85 60.4444 141.978 60.5629 141.978 60.7091V61.875C141.978 62.0212 141.85 62.1396 141.692 62.1396Z"
                fill="#096DD9"
            />
            <path
                opacity="0.3"
                d="M141.692 62.1396H138.452V60.4444H141.692C141.85 60.4444 141.978 60.5629 141.978 60.7091V61.875C141.978 62.0212 141.85 62.1396 141.692 62.1396Z"
                fill="white"
            />
            <path
                opacity="0.9"
                d="M141.973 61.7769H139.344C139.137 61.7769 138.969 61.6214 138.969 61.4295V61.1608C138.969 60.969 139.137 60.8135 139.344 60.8135H141.973V61.7727L141.973 61.7769Z"
                fill="white"
            />
            <path d="M50.5492 115.204L46.7351 113.319L49.8326 103.984L53.6467 105.868L50.5492 115.204Z" fill="#FFC3BD" />
            <path
                d="M47.7962 111.643L52.4679 112.57C52.6337 112.597 52.7461 112.745 52.7217 112.902L52.145 116.44C52.0584 116.82 51.665 117.063 51.2625 116.986C49.6419 116.637 48.8805 116.391 46.8273 115.982C45.5642 115.732 41.1982 114.892 39.5141 114.347C37.83 113.802 38.4471 112.237 39.2142 112.33C42.6747 112.733 45.6334 112.368 47.0003 111.73C47.2475 111.616 47.5282 111.586 47.7962 111.643Z"
                fill="#262626"
            />
            <path opacity="0.2" d="M53.6462 105.879L49.8723 103.984L48.1169 109.371L52.068 110.716L53.6462 105.879Z" fill="#262626" />
            <path
                d="M91.8699 59.5591C91.8699 59.5591 59.51 62.6164 56.8053 74.1146C52.9111 90.6339 47.656 106.333 47.656 106.333L54.8954 107.577C56.0047 102.874 64.2562 86.3771 68.1275 75.2583C76.8937 73.9807 100.327 78.8344 103.838 72.3293C105.58 69.0257 106.535 65.3816 106.635 61.6679L91.8699 59.5591Z"
                fill="#096DD9"
            />
            <path
                opacity="0.3"
                d="M91.8699 59.5591C91.8699 59.5591 59.51 62.6164 56.8053 74.1146C52.9111 90.6339 47.656 106.333 47.656 106.333L54.8954 107.577C56.0047 102.874 64.2562 86.3771 68.1275 75.2583C76.8937 73.9807 100.327 78.8344 103.838 72.3293C105.58 69.0257 106.535 65.3816 106.635 61.6679L91.8699 59.5591Z"
                fill="#262626"
            />
            <path d="M55.6155 110.267L47.1965 107.29L47.6004 103.984L56.4119 106.251L55.6155 110.267Z" fill="#096DD9" />
            <path
                fillRule="evenodd"
                clipRule="evenodd"
                d="M47.1006 112.064C46.7545 112.083 46.4076 112.054 46.0671 111.977C45.8222 111.945 45.5949 111.809 45.4263 111.593C45.3271 111.404 45.3271 111.163 45.4263 110.974C45.4718 110.845 45.5691 110.751 45.6847 110.727C46.1498 110.652 47.0799 111.76 47.1833 111.89C47.1989 111.925 47.1989 111.967 47.1833 112.002C47.1677 112.039 47.1357 112.063 47.1006 112.064ZM45.5557 111.445C45.6952 111.698 46.1809 111.853 46.8734 111.853C46.5013 111.414 45.9484 110.881 45.6745 110.937C45.6185 110.948 45.5725 110.996 45.5557 111.061C45.4962 111.179 45.4962 111.327 45.5557 111.445Z"
                fill="#096DD9"
            />
            <path
                fillRule="evenodd"
                clipRule="evenodd"
                d="M47.4498 112.067H47.4075L47.3333 112.036C47.0049 111.74 46.6024 110.855 46.7772 110.472C46.8393 110.33 46.9961 110.249 47.1532 110.278C47.2969 110.284 47.4287 110.356 47.5081 110.472C47.7977 110.858 47.5847 111.698 47.5233 111.94C47.5139 111.977 47.5081 112 47.5081 112.006C47.5007 112.034 47.4788 112.057 47.4498 112.067ZM47.3819 110.579C47.3418 110.52 47.2787 110.48 47.2071 110.466L47.1542 110.461C47.0217 110.451 46.9582 110.502 46.9582 110.548C46.9259 111.003 47.0778 111.452 47.3819 111.801C47.5173 111.404 47.5173 110.976 47.3819 110.579Z"
                fill="#096DD9"
            />
            <path
                d="M95.5762 30.5954C95.3825 32.696 95.0749 34.6724 94.7445 36.6995C94.414 38.7267 93.9811 40.7257 93.4513 42.7415C92.9348 44.8075 92.2645 46.8327 91.4461 48.8005C91.0048 49.8745 90.4691 50.9081 89.8453 51.8892C89.4926 52.4487 89.0903 52.9759 88.6433 53.4646C88.1055 54.0651 87.4771 54.5794 86.7805 54.9893L86.5412 55.1248L86.4102 55.1699C85.1734 55.5899 83.8381 55.6332 82.5763 55.2942C81.6396 55.056 80.7363 54.7031 79.8875 54.2439C79.12 53.8283 78.385 53.3564 77.6885 52.8322C77.3467 52.5781 77.0277 52.3014 76.7087 52.0247C76.3782 51.7477 76.0625 51.4537 75.7631 51.1438L77.5518 48.5746C78.2183 48.7892 78.9361 49.0658 79.6254 49.2691C80.3147 49.4724 80.9983 49.6926 81.6534 49.8338C82.2392 49.979 82.8388 50.0623 83.4422 50.0823C83.9492 50.0823 84.3081 49.9467 84.217 49.9072L83.8467 50.0879C84.2306 49.7269 84.5486 49.3028 84.7866 48.8343C85.183 48.1078 85.5239 47.3528 85.8063 46.5756C86.4205 44.8382 86.9284 43.0657 87.3274 41.2677C87.7432 39.4213 88.1021 37.5409 88.4154 35.621C88.7287 33.7011 88.9851 31.7813 89.2471 29.9404L95.5762 30.5954Z"
                fill="#FFC3BD"
            />
            <path
                d="M90.1676 27.5148C86.1417 30.9257 86.364 39.2254 86.364 39.2254L97.0022 42.9546C99.2551 39.5437 100.361 33.029 100.162 30.2321C99.852 25.9345 94.9425 23.4559 90.1676 27.5148Z"
                fill="#262626"
            />
            <path
                opacity="0.2"
                d="M100.17 30.4131C98.2779 29.5221 95.6912 29.8059 93.1335 31.9964C90.8188 33.9769 89.9218 37.6259 89.5862 40.3215L97.0396 42.9547C99.227 39.6065 100.321 33.2789 100.17 30.4131Z"
                fill="#262626"
            />
            <path d="M36.03 104.884L34.7549 100.97L43.6225 96.3569L44.8918 100.27L36.03 104.884Z" fill="#FFC3BD" />
            <path
                d="M35.1292 101.005L38.3509 104.395C38.4084 104.449 38.4408 104.522 38.4408 104.599C38.4408 104.675 38.4084 104.749 38.3509 104.803L35.6758 107.388C35.5279 107.517 35.3319 107.585 35.1312 107.576C34.9304 107.568 34.7414 107.484 34.6058 107.344C33.5067 106.148 33.0415 105.519 31.6226 104.037C30.7503 103.122 27.6856 100.096 26.4819 98.8278C25.2781 97.56 26.633 96.4687 27.2611 96.9041C30.0873 98.8498 32.9194 100.41 34.4372 100.658C34.7013 100.7 34.944 100.822 35.1292 101.005Z"
                fill="#262626"
            />
            <path opacity="0.2" d="M44.8918 100.383L43.6068 96.3569L37.0587 99.8228L39.7871 103.088L44.8918 100.383Z" fill="#262626" />
            <path
                d="M99.5408 60.9048C99.5408 60.9048 77.4316 63.7876 72.8729 69.6752C64.9353 79.9259 39.823 96.8404 39.823 96.8404L42.1023 103.986C42.1023 103.986 76.3261 89.9437 82.4118 78.2018C93.5918 77.3646 111.781 80.946 114.647 74.1935C116.556 69.6974 115.621 62.9837 115.621 62.9837L99.5408 60.9048Z"
                fill="#096DD9"
            />
            <path
                opacity="0.2"
                d="M99.5408 60.9048C99.5408 60.9048 77.4316 63.7876 72.8729 69.6752C64.9353 79.9259 39.823 96.8404 39.823 96.8404L42.1023 103.986C42.1023 103.986 76.3261 89.9437 82.4118 78.2018C93.5918 77.3646 111.781 80.946 114.647 74.1935C116.556 69.6974 115.621 62.9837 115.621 62.9837L99.5408 60.9048Z"
                fill="#262626"
            />
            <path d="M42.4083 105.332L37.5183 97.5483L40.6447 95.0103L45.3514 103.387L42.4083 105.332Z" fill="#096DD9" />
            <path
                fillRule="evenodd"
                clipRule="evenodd"
                d="M34.5986 100.832C34.2864 100.641 33.9976 100.421 33.7371 100.176C33.5231 99.9984 33.3925 99.7544 33.3719 99.4935C33.3944 99.321 33.5125 99.1705 33.6857 99.0935C33.7976 99.0378 33.9334 99.0378 34.0452 99.0935C34.5416 99.314 34.7527 100.601 34.7527 100.745C34.76 100.78 34.7416 100.815 34.707 100.832C34.6742 100.852 34.6314 100.852 34.5986 100.832ZM33.5718 99.5433C33.5546 99.7741 33.9084 100.154 34.5246 100.569V100.564C34.4276 100.051 34.2222 99.3741 33.9597 99.2869C33.905 99.2585 33.8376 99.2585 33.7829 99.2869C33.6664 99.3322 33.5859 99.43 33.5718 99.5433Z"
                fill="#096DD9"
            />
            <path
                fillRule="evenodd"
                clipRule="evenodd"
                d="M34.3882 100.832H34.3422C34.3277 100.816 34.3186 100.797 34.316 100.778C34.2109 100.323 34.4736 99.3207 34.9397 99.0986C35.1133 99.0185 35.3302 99.0428 35.4716 99.1582C35.6047 99.2554 35.6792 99.3961 35.6751 99.5428C35.6489 100.101 34.5458 100.832 34.4933 100.832C34.4624 100.852 34.4191 100.852 34.3882 100.832ZM35.4465 99.5433C35.4516 99.4698 35.4208 99.3977 35.3611 99.3429L35.3217 99.3104C35.2542 99.2468 35.1418 99.231 35.0525 99.2725C34.6783 99.6392 34.488 100.11 34.5207 100.589C34.8687 100.345 35.4465 99.8792 35.4465 99.5433Z"
                fill="#096DD9"
            />
            <path
                d="M78.527 49.2231L75.2628 46.0938L72.9978 50.5013C72.9978 50.5013 76.9615 52.6555 77.9552 51.6693L78.527 49.2231Z"
                fill="#FFC3BD"
            />
            <path d="M70.8392 46.0938L70.2335 49.769L72.9706 50.5814L75.302 46.1274L70.8392 46.0938Z" fill="#FFC3BD" />
            <path
                d="M115.104 25.3475C114.686 24.2632 113.941 23.1901 112.76 23.2067C112.517 23.2067 111.065 23.2067 110.805 23.2401C109.45 23.2735 107.755 23.3624 106.117 23.5682C102.979 23.9237 99.8651 24.4565 96.7898 25.164C95.3775 25.5421 94.0217 26.0147 92.9371 26.4206H92.8975C91.6313 26.9075 90.8488 28.164 90.9825 29.4955C91.5474 35.3728 92.9484 51.6925 92.1123 60.1442L115.274 63.1468C116.664 58.7986 117.217 48.84 117.229 40.7219C117.274 35.8454 116.827 29.7791 115.104 25.3475Z"
                fill="#262626"
            />
            <path
                opacity="0.2"
                d="M117.576 36.2222L117.104 36.2555L114.076 38.7523L110.944 49.0338L100.183 50.826C102.797 52.0855 110.402 52.3407 114.897 51.2033C116.409 50.8083 117.475 49.5223 117.529 48.0295C117.64 45.4605 117.692 42.8527 117.692 40.4058C117.692 39.0797 117.663 37.6648 117.576 36.2222Z"
                fill="#262626"
            />
            <path
                d="M79.4498 39.4531C79.4498 39.4531 81.5597 38.2676 85.5164 39.4175C87.7196 40.1284 90.0955 40.0595 92.2551 39.2219L93.7337 42.0315L80.2914 42.5057L79.4498 39.4531Z"
                fill="#096DD9"
            />
            <path
                opacity="0.8"
                d="M79.4498 39.4531C79.4498 39.4531 81.5597 38.2676 85.5164 39.4175C87.7196 40.1284 90.0955 40.0595 92.2551 39.2219L93.7337 42.0315L80.2914 42.5057L79.4498 39.4531Z"
                fill="white"
            />
            <path
                d="M79.5298 39.5252C79.5298 39.5252 79.4416 38.6828 76.8725 38.5957C71.7048 38.4272 69.5237 37.1201 69.5237 37.1201L69.312 38.4388L80.3705 42.5053L79.5298 39.5252Z"
                fill="#096DD9"
            />
            <path
                opacity="0.8"
                d="M79.5298 39.5252C79.5298 39.5252 79.4416 38.6828 76.8725 38.5957C71.7048 38.4272 69.5237 37.1201 69.5237 37.1201L69.312 38.4388L80.3705 42.5053L79.5298 39.5252Z"
                fill="white"
            />
            <path
                d="M84.0567 58.2107L74.6472 55.6015C74.4087 55.5283 74.2226 55.3452 74.1502 55.1123L69.3357 38.1527C69.2807 37.9929 69.3233 37.8167 69.4458 37.6975C69.5682 37.5784 69.7494 37.5369 69.9136 37.5904L78.878 40.0815L84.0567 58.2107Z"
                fill="#096DD9"
            />
            <path
                d="M98.2945 59.1053L85.9658 58.4349L80.8326 40.2617L93.3342 40.9434C93.6235 40.9681 93.8668 41.1656 93.9449 41.4391L98.7727 58.5195C98.8297 58.6634 98.8043 58.8261 98.7058 58.9467C98.6073 59.0674 98.4507 59.1278 98.2945 59.1053Z"
                fill="#096DD9"
            />
            <path d="M83.6442 58.5365L85.9006 58.6612L80.7848 40.3863L78.5283 40.2617L83.6442 58.5365Z" fill="#096DD9" />
            <path opacity="0.3" d="M83.6442 58.5365L85.9006 58.6612L80.7848 40.3863L78.5283 40.2617L83.6442 58.5365Z" fill="#262626" />
            <path
                d="M116.35 29.0415C116.471 29.8498 116.551 30.5347 116.609 31.2869C116.666 32.0391 116.706 32.7352 116.74 33.4649C116.792 34.9132 116.781 36.3671 116.689 37.8266C116.543 40.8219 115.985 43.7844 115.031 46.6341C115.031 46.6846 114.927 46.926 114.858 47.1056C114.778 47.2859 114.688 47.462 114.589 47.6333C114.406 47.9475 114.19 48.2428 113.946 48.5146C113.536 48.966 113.058 49.354 112.529 49.6653C111.715 50.1398 110.839 50.5024 109.924 50.7431C108.401 51.136 106.839 51.3675 105.265 51.4336C102.333 51.5684 99.3953 51.4085 96.4972 50.9564L96.6464 47.8522C99.3417 47.611 102.023 47.2363 104.679 46.7295C105.894 46.5055 107.085 46.1729 108.237 45.7359C108.664 45.5774 109.066 45.36 109.43 45.0904C109.551 44.9893 109.608 44.9051 109.597 44.8939C109.585 44.8827 109.568 44.8939 109.551 44.9332C109.534 44.9527 109.519 44.9734 109.505 44.9949C109.505 44.9949 109.471 45.096 109.505 44.9949C109.786 43.8008 109.997 42.592 110.136 41.3743C110.257 40.1281 110.343 38.865 110.36 37.5852C110.377 36.3053 110.36 35.0142 110.303 33.7231C110.274 33.0776 110.239 32.432 110.188 31.7921L110.107 30.8322L110.021 29.934L116.35 29.0415Z"
                fill="#FFC3BD"
            />
            <path
                d="M116.506 23.5891C113.684 21.4857 109.789 21.5481 108.192 27.0872C107.147 30.7156 107.704 38.0179 107.704 38.0179L118.973 37.7968C120.233 31.9912 119.362 25.7208 116.506 23.5891Z"
                fill="#262626"
            />
            <path
                d="M104.84 14.2324L102.516 16.9092L99.3503 20.5582C99.5484 21.0235 99.7139 21.5014 99.8457 21.9888C100.415 23.9223 98.6214 24.3135 96.9984 25.2914C96.9984 25.2914 94.5668 28.4488 100.415 27.5267C106.263 26.6047 107.095 23.615 107.095 23.615C104.47 21.8659 104.658 17.5742 104.84 14.2324Z"
                fill="#FFC3BD"
            />
            <path
                d="M102.447 27.2461C101.837 27.4172 101.217 27.5506 100.59 27.6453C99.7821 27.791 98.9588 27.8395 98.1386 27.7899L97.9972 28.4783C97.7791 28.6288 97.7261 29.4329 99.1051 30.3875C100.561 30.0924 102.818 28.8717 102.447 27.2461Z"
                fill="#096DD9"
            />
            <path
                d="M106.341 22.7588C106.341 22.7588 105.195 25.632 101.024 26.6839C101.615 28.2063 100.646 29.9391 100.646 29.9391C100.646 29.9391 106.466 28.0734 107.677 26.2078C108.888 24.3421 108.368 23.2515 108.368 23.2515C107.737 22.9558 107.046 22.788 106.341 22.7588V22.7588Z"
                fill="#262626"
            />
            <path
                d="M98.1466 29.9406C98.1466 29.9406 98.1849 27.5355 98.8742 26.7301C98.5131 25.6451 98.7046 25.0522 99.2626 24.1069C98.0863 24.3445 97.0454 25.0379 96.3577 26.0422C95.6192 27.3006 96.1334 29.9742 98.1466 29.9406Z"
                fill="#262626"
            />
            <path
                opacity="0.2"
                d="M99.723 20.472C99.9141 20.9241 100.074 21.3886 100.201 21.8622C101.486 21.368 103.017 19.6574 102.946 18.278C102.932 17.8217 102.868 17.3683 102.754 16.9258L99.723 20.472Z"
                fill="#262626"
            />
            <path
                d="M91.85 7.66692C90.7144 9.97658 91.6911 15.4628 97.0751 13.2786C102.459 11.0944 93.6976 3.92012 91.85 7.66692Z"
                fill="#262626"
            />
            <path
                d="M103.135 12.4542C102.633 13.4637 103.063 15.8636 105.421 14.9117C107.778 13.9599 103.917 10.8158 103.135 12.4542Z"
                fill="#262626"
            />
            <path
                d="M103.883 14.0608C103.196 14.8685 102.965 17.1919 105.251 16.8987C107.537 16.6055 104.993 12.7276 103.883 14.0608Z"
                fill="#262626"
            />
            <path
                d="M104.649 7.72416C105.609 12.0596 106.383 14.5377 104.828 17.3963C103.813 19.2992 101.79 20.4999 99.5774 20.514C97.3645 20.5281 95.326 19.3532 94.2848 17.4634C92.2501 13.928 91.0188 7.43327 94.7876 4.43485C96.4132 3.07351 98.6649 2.65284 100.697 3.33075C102.73 4.00867 104.235 5.68261 104.649 7.72416Z"
                fill="#FFC3BD"
            />
            <path
                d="M103.693 2.76971C102.786 -1.11216 97.4916 0.236341 94.7928 2.58352C92.0939 4.9307 91.3991 6.77572 89.1252 8.16371C93.3228 8.72794 99.2659 7.09168 100.38 5.70369C100.374 7.09861 101.049 8.4118 102.194 9.23574C102.116 10.4514 102.116 11.6707 102.194 12.8863L104.112 11.9271L106.346 11.0469C109.642 5.57392 107.695 2.1942 103.693 2.76971Z"
                fill="#262626"
            />
            <path
                d="M98.9517 11.0909C98.8784 11.0918 98.8155 11.0388 98.8042 10.9667C98.7959 10.9276 98.8039 10.8869 98.8264 10.8539C98.8489 10.8209 98.8839 10.7984 98.9234 10.7916L105.074 9.74669C105.157 9.73305 105.235 9.7885 105.25 9.87095C105.256 9.90996 105.247 9.94994 105.223 9.98183C105.2 10.0137 105.164 10.0348 105.125 10.0404L98.9744 11.0853L98.9517 11.0909Z"
                fill="white"
            />
            <path
                fillRule="evenodd"
                clipRule="evenodd"
                d="M95.2678 12.0247C95.6831 13.481 96.9699 14.6807 98.1398 14.6807C98.6012 14.6912 99.0386 14.4847 99.3096 14.1283C99.7447 13.4808 99.8439 12.6785 99.5787 11.9522C99.1634 10.4958 97.8707 9.29614 96.7009 9.29614C96.2386 9.28786 95.8015 9.49637 95.531 9.85412C95.0946 10.4994 94.9974 11.3014 95.2678 12.0247ZM95.7649 10.0324C95.9797 9.76279 96.3166 9.60728 96.6715 9.61392H96.6832C97.7244 9.6195 98.8825 10.7132 99.2627 12.0523C99.4975 12.6887 99.418 13.3923 99.0463 13.9662C98.837 14.2452 98.4929 14.403 98.1338 14.3847C97.0927 14.3791 95.9345 13.2855 95.5543 11.9463C95.3178 11.3108 95.3952 10.6073 95.7649 10.0324Z"
                fill="white"
            />
            <path
                d="M94.8232 12.435C94.7948 12.439 94.7654 12.439 94.737 12.435C94.6983 12.4213 94.6703 12.3979 94.6598 12.3706C94.6493 12.3433 94.6572 12.3144 94.6817 12.2909C94.9714 12.0543 95.4495 11.9438 95.9117 12.0066C95.9974 12.0218 96.0508 12.0758 96.0348 12.1312C96.0134 12.1867 95.9261 12.2213 95.8379 12.2091C95.8379 12.2091 95.2229 12.1234 94.9339 12.4C94.9063 12.4209 94.8662 12.4337 94.8232 12.435Z"
                fill="white"
            />
            <path
                d="M107.028 11.2602C106.761 12.3437 106.087 13.2977 105.131 13.9438C103.879 14.7527 102.898 13.7471 102.95 12.3369C102.996 11.0689 103.7 9.12316 105.102 8.87721C106.504 8.63126 107.346 9.93754 107.028 11.2602Z"
                fill="#FFC3BD"
            />
            <path
                d="M97.3213 11.5455C97.4789 11.8937 97.4408 12.2786 97.2397 12.4008C97.0387 12.523 96.7506 12.3397 96.593 11.9854C96.4354 11.631 96.4789 11.2523 96.6745 11.1301C96.8702 11.0079 97.1637 11.1912 97.3213 11.5455Z"
                fill="#262626"
            />
            <path
                d="M94.1127 12.9141C94.2577 13.2711 94.202 13.6462 93.99 13.7551C93.778 13.864 93.488 13.6643 93.3486 13.3074C93.2091 12.9504 93.2649 12.5693 93.4768 12.4665C93.6888 12.3636 93.9733 12.5512 94.1127 12.9141Z"
                fill="#262626"
            />
            <path
                d="M92.1981 11.0649C92.2767 11.0446 92.3391 10.9889 92.364 10.9169C92.5479 10.3728 92.9899 9.93655 93.564 9.73275C93.6901 9.69583 93.761 9.57208 93.7236 9.45449C93.7074 9.39779 93.6667 9.34978 93.6112 9.32177C93.5556 9.29376 93.4901 9.28823 93.43 9.30647C92.6918 9.55311 92.125 10.1119 91.9045 10.8103C91.8825 10.866 91.8866 10.9276 91.9156 10.9804C91.9447 11.0332 91.9962 11.0724 92.0577 11.0885C92.106 11.0956 92.1555 11.0872 92.1981 11.0649Z"
                fill="#262626"
            />
            <path
                fillRule="evenodd"
                clipRule="evenodd"
                d="M91.5629 13.1327C91.939 14.4496 93.1018 15.5752 94.1548 15.5752C94.5658 15.5852 94.9562 15.4005 95.202 15.08C95.5945 14.4858 95.6842 13.7489 95.445 13.082C95.0689 11.7651 93.906 10.6395 92.8473 10.6395C92.4393 10.6301 92.0517 10.8123 91.8059 11.1291C91.4115 11.7248 91.3218 12.4641 91.5629 13.1327ZM92.0371 11.3149C92.2234 11.0686 92.5212 10.9258 92.8355 10.9322L92.8413 10.9097C93.7785 10.9434 94.8141 11.9396 95.1555 13.1608C95.3655 13.7388 95.2954 14.3781 94.9645 14.8999C94.7746 15.1442 94.4752 15.2846 94.1604 15.277C93.2173 15.2713 92.1875 14.2752 91.8462 13.0539C91.6326 12.4764 91.703 11.8355 92.0371 11.3149Z"
                fill="white"
            />
            <path
                d="M95.5846 12.4385C95.5565 13.4848 95.3992 14.5223 95.1167 15.5233C95.5933 15.6559 96.0997 15.5526 96.499 15.2413L95.5846 12.4385Z"
                fill="#ED847E"
            />
            <path
                d="M96.5415 16.3798C97.31 16.1476 97.957 15.5891 98.3329 14.8334C98.3435 14.807 98.3438 14.7772 98.3339 14.7505C98.3239 14.7239 98.3045 14.7025 98.2799 14.6913C98.23 14.6698 98.1731 14.6918 98.1474 14.7424C97.7303 15.5606 96.9819 16.1238 96.1228 16.2661C96.0684 16.2776 96.0314 16.3321 96.038 16.3912C96.0487 16.4489 96.1005 16.4869 96.1546 16.4765C96.2856 16.4543 96.4149 16.422 96.5415 16.3798Z"
                fill="#262626"
            />
            <path
                d="M97.7685 8.80814C97.8018 8.78632 97.8292 8.7537 97.8475 8.71406C97.9126 8.58411 97.8773 8.41594 97.7685 8.33776C97.1431 7.88278 96.3691 7.82587 95.7014 8.18579C95.6465 8.21819 95.605 8.27592 95.5866 8.3456C95.5682 8.41528 95.5746 8.49087 95.6042 8.55485C95.6634 8.68807 95.8017 8.73971 95.9142 8.67064C96.4414 8.3962 97.0482 8.4476 97.5374 8.80814C97.6077 8.86223 97.6982 8.86223 97.7685 8.80814Z"
                fill="#262626"
            />
            <path
                d="M97.6849 48.0194L94.1948 46.5459L94.3117 50.9774C94.3117 50.9774 97.7684 52.3678 98.3418 50.5342L97.6849 48.0194Z"
                fill="#FFC3BD"
            />
            <path d="M90.0466 47.5538L90.8405 50.7577L94.6543 51.0336L94.5335 46.5459L90.0466 47.5538Z" fill="#FFC3BD" />
        </svg>