 <svg width="40" height="40" viewBox="0 0 40 40" fill="white" xmlns="http://www.w3.org/2000/svg">
            <circle cx="17.9412" cy="22.0589" r="17.9412" fill="#1890FF" />
            <circle cx="18.235" cy="22.3526" r="12.6471" fill="white" />
            <circle cx="18.0877" cy="21.9114" r="5.44118" fill="#1890FF" />
            <path
                d="M39.9663 3.78402C39.8869 3.54473 39.6788 3.37104 39.4292 3.33564L37.0103 2.99007L36.6648 0.571186C36.6291 0.321481 36.4554 0.113377 36.216 0.0336579C35.9767 -0.0460613 35.7129 0.0162928 35.5346 0.194717L30.9569 4.77241C30.7786 4.9508 30.7164 5.2146 30.7963 5.45383L31.4983 7.5601L17.5568 21.5018C17.3837 21.669 17.3143 21.9165 17.3752 22.1493C17.4362 22.3821 17.618 22.5639 17.8508 22.6249C18.0836 22.6858 18.3311 22.6164 18.4983 22.4433L32.4399 8.50187L34.5465 9.20407C34.7858 9.28382 35.0496 9.22152 35.2279 9.04314L39.8057 4.46545C39.9839 4.28707 40.0462 4.02326 39.9663 3.78402Z"
                fill="#52C41A"
            />
        </svg>