<svg width="87" height="86" viewBox="0 0 87 86" fill="none" xmlns="http://www.w3.org/2000/svg">
<mask id="mask0_111494_19323" style="mask-type:alpha" maskUnits="userSpaceOnUse" x="1" y="1" width="85" height="84">
<rect x="1.66699" y="1" width="84" height="84" rx="2" fill="white"/>
</mask>
<g mask="url(#mask0_111494_19323)">
<rect x="1.6748" y="1" width="84.3281" height="84" rx="2" fill="white"/>
<rect x="1.66699" y="1" width="86.9647" height="6" fill="#BFBFBF"/>
<circle cx="4.64355" cy="4" r="1" fill="#FAFAFA"/>
<circle cx="8.64355" cy="4" r="1" fill="#FAFAFA"/>
<circle cx="12.6436" cy="4" r="1" fill="#FAFAFA"/>
</g>
<path fill-rule="evenodd" clip-rule="evenodd" d="M14.001 11C14.001 10.4477 14.4487 10 15.001 10H82.001C82.5533 10 83.001 10.4477 83.001 11V15C83.001 15.5523 82.5533 16 82.001 16H15.001C14.4487 16 14.001 15.5523 14.001 15V11Z" fill="#D9D9D9"/>
<path d="M1.6748 7H10.6748V85H3.6748C2.57024 85 1.6748 84.1046 1.6748 83V7Z" fill="#595959"/>
<path fill-rule="evenodd" clip-rule="evenodd" d="M6.1748 15C7.83166 15 9.1748 13.6569 9.1748 12C9.1748 10.3431 7.83166 9 6.1748 9C4.51795 9 3.1748 10.3431 3.1748 12C3.1748 13.6569 4.51795 15 6.1748 15Z" fill="#FAFAFA"/>
<path fill-rule="evenodd" clip-rule="evenodd" d="M8.6748 21H3.6748V22H8.6748V21Z" fill="#40A9FF"/>
<path fill-rule="evenodd" clip-rule="evenodd" d="M8.6748 25H3.6748V26H8.6748V25Z" fill="#FAFAFA"/>
<path fill-rule="evenodd" clip-rule="evenodd" d="M8.6748 29H3.6748V30H8.6748V29Z" fill="#FAFAFA"/>
<path fill-rule="evenodd" clip-rule="evenodd" d="M8.6748 33H3.6748V34H8.6748V33Z" fill="#FAFAFA"/>
<path fill-rule="evenodd" clip-rule="evenodd" d="M8.6748 37H3.6748V38H8.6748V37Z" fill="#FAFAFA"/>
<path fill-rule="evenodd" clip-rule="evenodd" d="M8.6748 41H3.6748V42H8.6748V41Z" fill="#FAFAFA"/>
<path fill-rule="evenodd" clip-rule="evenodd" d="M8.6748 45H3.6748V46H8.6748V45Z" fill="#FAFAFA"/>
<path fill-rule="evenodd" clip-rule="evenodd" d="M8.6748 49H3.6748V50H8.6748V49Z" fill="#FAFAFA"/>
<path fill-rule="evenodd" clip-rule="evenodd" d="M14.0225 79C14.0225 78.4477 14.4702 78 15.0225 78H81.2881C81.8404 78 82.2881 78.4477 82.2881 79V81C82.2881 81.5523 81.8404 82 81.2881 82H15.0225C14.4702 82 14.0225 81.5523 14.0225 81V79Z" fill="#BFBFBF"/>
<rect x="1.16699" y="0.5" width="85" height="85" rx="2.5" stroke="#BFBFBF" stroke-linejoin="round"/>
</svg>
