<svg width="135" height="115" viewBox="0 0 135 115" fill="none" xmlns="http://www.w3.org/2000/svg">
<path d="M103.526 111.859H25.3955C13.9013 111.859 4.58594 102.544 4.58594 91.0493V70.8944C4.58594 63.9878 10.1831 58.3906 17.0897 58.3906H111.837C118.744 58.3906 124.341 63.9878 124.341 70.8944V91.0493C124.336 102.539 115.021 111.859 103.526 111.859Z" fill="#91D5FF"/>
<path d="M44.6442 35.7222L37.918 38.7864C37.6678 38.9003 37.37 38.7889 37.256 38.5388C37.1421 38.2886 37.2535 37.9908 37.5036 37.8768L44.2299 34.8127C44.48 34.6987 44.7779 34.8101 44.8918 35.0603C45.0058 35.3104 44.8943 35.6083 44.6442 35.7222Z" fill="white"/>
<path d="M49.693 46.8043L42.9668 49.8684C42.7167 49.9824 42.4188 49.8709 42.3048 49.6208C42.1909 49.3707 42.3023 49.0728 42.5524 48.9588L49.2787 45.8947C49.5288 45.7807 49.8267 45.8922 49.9406 46.1423C50.0546 46.3924 49.9432 46.6903 49.693 46.8043Z" fill="white"/>
<path d="M59.6537 55.7823L18.5459 74.509C17.8637 74.8198 17.0607 74.5156 16.752 73.838L1.07903 39.4336C0.768262 38.7515 1.07242 37.9484 1.75004 37.6397L42.8579 18.913C43.5401 18.6022 44.3431 18.9064 44.6518 19.584L60.3248 53.9884C60.6355 54.6705 60.3314 55.4736 59.6537 55.7823ZM2.1644 38.5493C1.98703 38.6301 1.9078 38.8419 1.98859 39.0193L17.6615 73.4236C17.7423 73.601 17.9542 73.6802 18.1315 73.5994L59.2394 54.8727C59.4168 54.7919 59.496 54.5801 59.4152 54.4027L43.7423 19.9984C43.6615 19.821 43.4496 19.7418 43.2723 19.8226L2.1644 38.5493Z" fill="#E6F7FF"/>
<g filter="url(#filter0_d_112614_262964)">
<path d="M59.6537 55.7823L18.5459 74.509C17.8637 74.8198 17.0607 74.5156 16.752 73.838L1.07903 39.4336C0.768262 38.7515 1.07242 37.9484 1.75004 37.6397L42.8579 18.913C43.5401 18.6022 44.3431 18.9064 44.6518 19.584L60.3248 53.9884C60.6355 54.6705 60.3314 55.4736 59.6537 55.7823ZM2.1644 38.5493C1.98703 38.6301 1.9078 38.8419 1.98859 39.0193L17.6615 73.4236C17.7423 73.601 17.9542 73.6802 18.1315 73.5994L59.2394 54.8727C59.4168 54.7919 59.496 54.5801 59.4152 54.4027L43.7423 19.9984C43.6615 19.821 43.4496 19.7418 43.2723 19.8226L2.1644 38.5493Z" fill="#E6F7FF"/>
</g>
<path d="M42.1938 30.3408L10.1406 44.9426C9.89049 45.0566 9.59261 44.9451 9.47866 44.695C9.36471 44.4449 9.47614 44.147 9.72627 44.0331L41.7794 29.4312C42.0295 29.3173 42.3274 29.4287 42.4414 29.6788C42.5553 29.929 42.4439 30.2268 42.1938 30.3408Z" fill="#91D5FF"/>
<path d="M47.0932 41.0967L15.04 55.6985C14.7899 55.8124 14.492 55.701 14.3781 55.4509C14.2641 55.2007 14.3756 54.9029 14.6257 54.7889L46.6788 40.1871C46.9289 40.0731 47.2268 40.1846 47.3408 40.4347C47.4568 40.6894 47.3433 40.9827 47.0932 41.0967Z" fill="#91D5FF"/>
<path d="M29.8736 42.4508L12.5918 50.3235C12.3417 50.4374 12.0438 50.326 11.9298 50.0759C11.8159 49.8257 11.9273 49.5279 12.1774 49.4139L29.4592 41.5412C29.7093 41.4272 30.0072 41.5387 30.1212 41.7888C30.2351 42.0389 30.1237 42.3368 29.8736 42.4508Z" fill="#91D5FF"/>
<path d="M34.9224 53.5347L17.6406 61.4075C17.3905 61.5214 17.0926 61.41 16.9787 61.1599C16.8647 60.9097 16.9761 60.6118 17.2263 60.4979L34.508 52.6252C34.7582 52.5112 35.0561 52.6226 35.17 52.8728C35.2839 53.1229 35.1725 53.4208 34.9224 53.5347Z" fill="#91D5FF"/>
<path d="M31.6356 61.2303L19.9795 66.5403C19.7294 66.6542 19.4315 66.5428 19.3175 66.2927C19.2036 66.0425 19.315 65.7447 19.5651 65.6307L31.2212 60.3208C31.4714 60.2068 31.7692 60.3182 31.8832 60.5684C31.9971 60.8185 31.8857 61.1164 31.6356 61.2303Z" fill="#91D5FF"/>
<g opacity="0.81">
<path d="M83.042 43.8354L90.3802 44.7194C90.6531 44.7523 90.8495 45.0024 90.8166 45.2753C90.7837 45.5482 90.5336 45.7446 90.2607 45.7117L82.9224 44.8277C82.6495 44.7948 82.4532 44.5446 82.486 44.2717C82.5189 43.9989 82.7691 43.8025 83.042 43.8354Z" fill="white"/>
<path d="M84.499 31.7436L91.8372 32.6276C92.1101 32.6605 92.3065 32.9106 92.2736 33.1835C92.2408 33.4564 91.9906 33.6528 91.7177 33.6199L84.3795 32.7359C84.1066 32.703 83.9102 32.4528 83.9431 32.1799C83.9759 31.9071 84.2261 31.7107 84.499 31.7436Z" fill="white"/>
<g filter="url(#filter1_d_112614_262964)">
<path d="M90.9953 13.7046L131.772 33.1418C132.449 33.4644 132.732 34.275 132.412 34.9471L116.144 69.0743C115.822 69.751 115.011 70.0345 114.339 69.7141L73.5623 50.2769C72.8856 49.9543 72.6021 49.1438 72.9225 48.4716L89.1901 14.3444C89.5126 13.6677 90.3232 13.3842 90.9953 13.7046ZM114.769 68.8119C114.945 68.8957 115.158 68.8202 115.242 68.6443L131.51 34.517C131.593 34.3411 131.518 34.1279 131.342 34.0441L90.5653 14.6068C90.3893 14.523 90.1762 14.5985 90.0923 14.7745L73.8247 48.9017C73.7409 49.0776 73.8164 49.2908 73.9923 49.3747L114.769 68.8119Z" fill="#E6F7FF"/>
<path d="M90.9953 13.7046L131.772 33.1418C132.449 33.4644 132.732 34.275 132.412 34.9471L116.144 69.0743C115.822 69.751 115.011 70.0345 114.339 69.7141L73.5623 50.2769C72.8856 49.9543 72.6021 49.1438 72.9225 48.4716L89.1901 14.3444C89.5126 13.6677 90.3232 13.3842 90.9953 13.7046ZM114.769 68.8119C114.945 68.8957 115.158 68.8202 115.242 68.6443L131.51 34.517C131.593 34.3411 131.518 34.1279 131.342 34.0441L90.5653 14.6068C90.3893 14.523 90.1762 14.5985 90.0923 14.7745L73.8247 48.9017C73.7409 49.0776 73.8164 49.2908 73.9923 49.3747L114.769 68.8119Z" fill="#E6F7FF"/>
</g>
<path d="M82.7416 43.4359L114.537 58.5917C114.785 58.71 114.891 59.0098 114.773 59.2579C114.654 59.506 114.355 59.6122 114.106 59.4939L82.3116 44.3381C82.0635 44.2198 81.9572 43.9201 82.0755 43.672C82.1938 43.4238 82.4935 43.3176 82.7416 43.4359Z" fill="#91D5FF"/>
<path d="M87.8266 32.7679L119.622 47.9237C119.87 48.042 119.976 48.3418 119.858 48.5899C119.739 48.838 119.44 48.9442 119.191 48.826L87.3965 33.6701C87.1484 33.5519 87.0422 33.2521 87.1604 33.004C87.2809 32.7514 87.5785 32.6496 87.8266 32.7679Z" fill="#91D5FF"/>
<path d="M99.938 45.0843L117.081 53.2558C117.329 53.374 117.435 53.6738 117.317 53.9219C117.198 54.17 116.899 54.2763 116.65 54.158L99.5079 45.9866C99.2598 45.8683 99.1535 45.5685 99.2718 45.3204C99.3901 45.0723 99.6898 44.9661 99.938 45.0843Z" fill="#91D5FF"/>
<path d="M105.178 34.0902L122.321 42.2616C122.569 42.3799 122.675 42.6797 122.557 42.9278C122.439 43.1759 122.139 43.2821 121.891 43.1639L104.748 34.9924C104.5 34.8742 104.394 34.5744 104.512 34.3263C104.63 34.0782 104.93 33.9719 105.178 34.0902Z" fill="#91D5FF"/>
<path d="M113.186 31.6565L124.748 37.1679C124.997 37.2861 125.103 37.5859 124.985 37.834C124.866 38.0822 124.567 38.1884 124.318 38.0701L112.756 32.5587C112.508 32.4404 112.402 32.1407 112.52 31.8926C112.638 31.6444 112.938 31.5382 113.186 31.6565Z" fill="#91D5FF"/>
</g>
<path opacity="0.36" d="M51.756 62.7144L97.31 75.8907C98.4235 76.2113 99.5882 75.5724 99.9088 74.4589L113.085 28.9048C113.406 27.7913 112.767 26.6266 111.653 26.306L66.0993 13.1297C64.9858 12.8091 63.8211 13.448 63.5005 14.5615L50.3241 60.1156C49.9974 61.2255 50.6412 62.389 51.756 62.7144Z" fill="#9CD1FA"/>
<path d="M56.0344 61.2209L99.5184 73.8024C101.204 74.2922 102.968 73.319 103.453 71.6348L116.034 28.1508C116.524 26.4652 115.551 24.7014 113.867 24.2165L70.3826 11.635C68.697 11.1452 66.9332 12.1184 66.4482 13.8026L53.8668 57.2866C53.377 58.9722 54.3501 60.736 56.0344 61.2209Z" fill="white"/>
<path d="M58.4592 57.3526L99.6006 69.2539L111.502 28.1125L70.3606 16.2112L58.4592 57.3526Z" fill="#91D5FF"/>
<path opacity="0.47" d="M58.3391 57.5408L57.8633 57.4031L62.5843 41.0906L62.6469 40.8776L70.0719 37.3472C72.6252 36.1341 75.7184 37.0011 77.2646 39.3681L84.5454 50.5155C84.824 50.9432 85.3525 51.1239 85.8351 50.9549L93.9686 48.09C95.4862 47.5541 97.1346 48.2554 97.8055 49.7166L102.654 60.2668L99.9587 69.5816L58.3391 57.5408ZM96.902 50.1314C96.4485 49.1399 95.3243 48.6619 94.2941 49.0274L86.1606 51.8923C85.2486 52.2163 84.2426 51.8724 83.7128 51.0614L76.432 39.914C75.1557 37.9616 72.6027 37.2412 70.495 38.2433L63.4734 41.5791L59.0905 56.7269L99.2826 68.3544L101.599 60.3442L96.902 50.1314Z" fill="white"/>
<path opacity="0.47" d="M83.5396 38.1949C80.7467 37.3881 79.1346 34.4596 79.9414 31.6666C80.7482 28.8737 83.6767 27.2616 86.4697 28.0684C89.2627 28.8752 90.8748 31.8037 90.0679 34.5967C89.4196 36.8359 87.4082 38.3192 85.1958 38.3978C84.6543 38.4222 84.0946 38.3583 83.5396 38.1949ZM80.8931 31.9422C80.2367 34.2094 81.5479 36.5868 83.8152 37.2432C86.0824 37.8996 88.4598 36.5884 89.1162 34.3211C89.7727 32.0539 88.4614 29.6765 86.1942 29.0201C85.7463 28.8904 85.2922 28.8348 84.8476 28.8542C83.0569 28.9246 81.4211 30.1276 80.8931 31.9422Z" fill="white"/>
<path opacity="0.36" d="M76.1126 60.7962L43.4538 65.5188C41.7177 65.7698 40.1043 64.564 39.8532 62.828L35.1307 30.1691C34.8796 28.4331 36.0854 26.8196 37.8215 26.5686L70.4803 21.846C72.2164 21.595 73.8298 22.8008 74.0809 24.5368L78.8034 57.1956C79.0502 58.9374 77.8487 60.5452 76.1126 60.7962Z" fill="#4C65BA"/>
<path d="M73.848 59.1048L41.1891 63.8274C39.4531 64.0784 37.8396 62.8726 37.5886 61.1365L32.866 28.4777C32.615 26.7417 33.8208 25.1282 35.5568 24.8772L68.2156 20.1546C69.9517 19.9036 71.5652 21.1094 71.8162 22.8454L76.5388 55.5042C76.7905 57.2453 75.584 58.8538 73.848 59.1048Z" fill="white"/>
<path opacity="0.39" d="M68.4991 23.5052L36.1865 28.1777L40.859 60.4903L73.1716 55.8178L68.4991 23.5052Z" fill="#FF7875"/>
<path opacity="0.47" d="M73.7517 56.0224L40.4598 60.8365L39.3791 53.3631L44.168 45.8689C44.8595 44.7843 46.2448 44.4123 47.3907 45.004L53.2301 48.0225C53.5251 48.1767 53.889 48.109 54.1048 47.8556L60.7691 40.2013C62.2243 38.5316 64.715 38.1916 66.5674 39.4083L71.8464 42.8815L73.7468 56.0232L73.7517 56.0224ZM41.2918 59.7114L72.6251 55.1805L70.9293 43.4534L66.0189 40.2249C64.5798 39.2817 62.6437 39.5465 61.513 40.8411L54.8487 48.4953C54.3288 49.0906 53.474 49.2546 52.7701 48.8918L46.9257 45.8741C46.2382 45.5191 45.4074 45.7452 44.9965 46.3955L40.405 53.5783L41.2918 59.7114Z" fill="white"/>
<path opacity="0.47" d="M56.2602 38.8446C54.0048 39.1707 51.8995 37.6018 51.5727 35.3414C51.2458 33.0811 52.8155 30.9807 55.0758 30.6539C57.3312 30.3278 59.4365 31.8967 59.7633 34.157C60.0902 36.4174 58.5156 38.5184 56.2602 38.8446ZM55.2181 31.6382C53.5018 31.8863 52.3088 33.4828 52.5569 35.1991C52.8051 36.9154 54.4016 38.1085 56.1179 37.8603C57.8342 37.6121 59.0273 36.0156 58.7791 34.2994C58.5309 32.5831 56.9344 31.39 55.2181 31.6382Z" fill="white"/>
<path opacity="0.36" d="M52.3789 69.5091L31.0657 77.4964C29.1032 78.2301 26.92 77.2399 26.1863 75.2774L18.199 53.9642C17.4653 52.0016 18.4555 49.8184 20.418 49.0847L41.7313 41.0975C43.6938 40.3638 45.877 41.354 46.6107 43.3165L54.5979 64.6297C55.3317 66.5922 54.3355 68.7754 52.3789 69.5091Z" fill="#4C65BA"/>
<path d="M50.3926 68.6088L29.0794 76.596C27.1169 77.3297 24.9336 76.3395 24.1999 74.377L16.2127 53.0638C15.479 51.1012 16.4692 48.918 18.4317 48.1843L39.7449 40.1971C41.7074 39.4634 43.8907 40.4536 44.6244 42.4161L52.6116 63.7293C53.3513 65.6918 52.3551 67.875 50.3926 68.6088Z" fill="white"/>
<path d="M41.7718 42.1962L18.2002 51.0293L27.0333 74.6009L50.6049 65.7679L41.7718 42.1962Z" fill="#FFBB96"/>
<path opacity="0.47" d="M26.6581 75.2004L24.5166 69.4799L26.9205 62.972C27.3023 61.9401 28.3939 61.3734 29.4557 61.6597L34.353 62.972C34.5081 63.0138 34.6692 62.9422 34.7467 62.805L38.5107 55.9451C39.3816 54.3584 41.3143 53.6486 43.0083 54.2988L47.6432 56.0823L51.3416 65.9605L26.6581 75.2004ZM25.7752 69.4739L27.35 73.6793L49.8145 65.2626L46.7127 56.989L42.5729 55.3964C41.4336 54.9549 40.1272 55.4381 39.5367 56.5059L35.7727 63.3657C35.4327 63.9861 34.7169 64.2903 34.0369 64.1113L29.1395 62.799C28.6683 62.6738 28.1911 62.9243 28.0181 63.3776L25.7752 69.4739Z" fill="white"/>
<path opacity="0.47" d="M33.9531 56.1783C32.5751 56.1783 31.2747 55.3372 30.7677 53.9712C30.1116 52.2174 31.0004 50.2549 32.7601 49.5988C34.5138 48.9426 36.4763 49.8314 37.1325 51.5911C37.7886 53.3448 36.8998 55.3074 35.1401 55.9635C34.7524 56.1126 34.3527 56.1783 33.9531 56.1783ZM33.9471 50.5651C33.6906 50.5651 33.4281 50.6128 33.1716 50.7083C32.0263 51.1378 31.4477 52.4143 31.8772 53.5596C32.3067 54.7049 33.5832 55.2835 34.7285 54.86C35.8738 54.4305 36.4524 53.154 36.023 52.0087C35.6949 51.1139 34.8478 50.5651 33.9471 50.5651Z" fill="white"/>
<path opacity="0.36" d="M113.671 73.0323L92.4473 81.254C90.493 82.0093 88.299 81.0432 87.5437 79.0889L79.322 57.865C78.5667 55.9107 79.5328 53.7167 81.4871 52.9614L102.711 44.7397C104.665 43.9844 106.859 44.9505 107.615 46.9048L115.836 68.1287C116.592 70.083 115.62 72.2771 113.671 73.0323Z" fill="#4C65BA"/>
<path d="M111.675 72.1534L90.4512 80.3751C88.4969 81.1304 86.3029 80.1643 85.5476 78.21L77.3259 56.9861C76.5706 55.0318 77.5367 52.8378 79.491 52.0825L100.715 43.8608C102.669 43.1055 104.863 44.0716 105.619 46.0259L113.84 67.2498C114.601 69.204 113.629 71.3981 111.675 72.1534Z" fill="white"/>
<path d="M102.764 45.8354L79.291 54.9277L88.3834 78.4006L111.856 69.3082L102.764 45.8354Z" fill="#D9F7BE"/>
<path opacity="0.47" d="M88.014 79.0056L85.8096 73.309L88.1417 66.7751C88.512 65.7389 89.5973 65.1603 90.6622 65.4349L95.5737 66.6931C95.7293 66.7332 95.8895 66.6598 95.9655 66.5218L99.6537 59.6209C100.507 58.0247 102.432 57.2935 104.133 57.925L108.787 59.6574L112.594 69.4942L88.014 79.0056ZM87.0681 73.2892L88.6892 77.477L111.06 68.8132L107.867 60.5743L103.71 59.0273C102.565 58.5985 101.265 59.096 100.686 60.1702L96.9977 67.0711C96.6645 67.6952 95.9521 68.0073 95.2701 67.8359L90.3586 66.5776C89.8861 66.4575 89.4116 66.7133 89.2437 67.1685L87.0681 73.2892Z" fill="white"/>
<path opacity="0.47" d="M95.1 59.904C93.7222 59.9192 92.4126 59.0925 91.8905 57.7322C91.2151 55.9858 92.0822 54.0136 93.8346 53.3381C95.581 52.6626 97.5532 53.5298 98.2287 55.2821C98.9041 57.0285 98.037 59.0007 96.2846 59.6762C95.8986 59.8296 95.4997 59.8996 95.1 59.904ZM95.0322 54.2913C94.7757 54.2941 94.5138 54.3447 94.2584 54.443C93.1179 54.8851 92.5534 56.1679 92.9954 57.3084C93.4375 58.4489 94.7204 59.0134 95.8609 58.5773C97.0014 58.1352 97.5659 56.8524 97.1238 55.7119C96.7859 54.8208 95.9329 54.2814 95.0322 54.2913Z" fill="white"/>
<path d="M64.4611 108.446C81.9267 108.446 96.0853 94.287 96.0853 76.8215C96.0853 59.3559 81.9267 45.1973 64.4611 45.1973C46.9955 45.1973 32.8369 59.3559 32.8369 76.8215C32.8369 94.287 46.9955 108.446 64.4611 108.446Z" fill="#1890FF"/>
<path d="M105.026 111.728H23.8914C13.2267 111.728 4.58105 103.083 4.58105 92.418V86.0662C4.58105 75.4015 13.2267 66.7559 23.8914 66.7559H105.026C115.691 66.7559 124.336 75.4015 124.336 86.0662V92.418C124.336 103.083 115.691 111.728 105.026 111.728Z" fill="#1890FF"/>
<path d="M86.8197 92.5548C99.1696 80.2049 99.1696 60.1818 86.8197 47.8319C74.4698 35.482 54.4467 35.482 42.0968 47.8319C29.7469 60.1818 29.7469 80.2049 42.0968 92.5548C54.4467 104.905 74.4698 104.905 86.8197 92.5548Z" fill="#1890FF"/>
<path d="M57.0643 74.901C56.6895 74.901 56.3096 74.7561 56.0248 74.4662C55.4601 73.8915 55.4701 72.972 56.0448 72.4072L64.5305 64.0664L72.8814 72.4172C73.4511 72.9869 73.4511 73.9065 72.8814 74.4762C72.3116 75.0459 71.3921 75.0459 70.8224 74.4762L64.5105 68.1644L58.0788 74.4862C57.7989 74.7611 57.4341 74.901 57.0643 74.901Z" fill="white"/>
<path d="M64.4601 86.4703C63.6555 86.4703 63.0059 85.8207 63.0059 85.0161V66.1105C63.0059 65.3059 63.6555 64.6562 64.4601 64.6562C65.2647 64.6562 65.9144 65.3059 65.9144 66.1105V85.0161C65.9144 85.8207 65.2647 86.4703 64.4601 86.4703Z" fill="white"/>
<path d="M78.2091 95.4517H50.488C48.499 95.4517 46.8848 93.8325 46.8848 91.8485V81.7785C46.8848 80.9739 47.5344 80.3242 48.339 80.3242C49.1436 80.3242 49.7933 80.9739 49.7933 81.7785V91.8485C49.7933 92.2333 50.1032 92.5431 50.488 92.5431H78.2091C78.7138 92.5431 79.1186 92.1333 79.1186 91.6336V81.7785C79.1186 80.9739 79.7683 80.3242 80.5729 80.3242C81.3775 80.3242 82.0272 80.9739 82.0272 81.7785V91.6336C82.0322 93.7375 80.318 95.4517 78.2091 95.4517Z" fill="white"/>
<defs>
<filter id="filter0_d_112614_262964" x="0.957031" y="18.791" width="59.4893" height="56.8398" filterUnits="userSpaceOnUse" color-interpolation-filters="sRGB">
<feFlood flood-opacity="0" result="BackgroundImageFix"/>
<feColorMatrix in="SourceAlpha" type="matrix" values="0 0 0 0 0 0 0 0 0 0 0 0 0 0 0 0 0 0 127 0" result="hardAlpha"/>
<feOffset dy="1"/>
<feComposite in2="hardAlpha" operator="out"/>
<feColorMatrix type="matrix" values="0 0 0 0 0.0941176 0 0 0 0 0.564706 0 0 0 0 1 0 0 0 0.2 0"/>
<feBlend mode="normal" in2="BackgroundImageFix" result="effect1_dropShadow_112614_262964"/>
<feBlend mode="normal" in="SourceGraphic" in2="effect1_dropShadow_112614_262964" result="shape"/>
</filter>
<filter id="filter1_d_112614_262964" x="72.791" y="13.5723" width="60.7529" height="57.2734" filterUnits="userSpaceOnUse" color-interpolation-filters="sRGB">
<feFlood flood-opacity="0" result="BackgroundImageFix"/>
<feColorMatrix in="SourceAlpha" type="matrix" values="0 0 0 0 0 0 0 0 0 0 0 0 0 0 0 0 0 0 127 0" result="hardAlpha"/>
<feOffset dx="1" dy="1"/>
<feComposite in2="hardAlpha" operator="out"/>
<feColorMatrix type="matrix" values="0 0 0 0 0.0941176 0 0 0 0 0.564706 0 0 0 0 1 0 0 0 0.2 0"/>
<feBlend mode="normal" in2="BackgroundImageFix" result="effect1_dropShadow_112614_262964"/>
<feBlend mode="normal" in="SourceGraphic" in2="effect1_dropShadow_112614_262964" result="shape"/>
</filter>
</defs>
</svg>
