<svg width="30" height="31" viewBox="0 0 30 31" fill="none" xmlns="http://www.w3.org/2000/svg">
<path d="M20.4784 10.8018H19.1044C18.8056 10.8018 18.5214 10.9454 18.3456 11.1915L13.7401 17.5782L11.6542 14.6837C11.4784 14.4405 11.1972 14.294 10.8954 14.294H9.5214C9.33097 14.294 9.21964 14.5108 9.33097 14.6661L12.9814 19.7286C13.0676 19.8489 13.1813 19.947 13.313 20.0147C13.4447 20.0823 13.5906 20.1176 13.7387 20.1176C13.8867 20.1176 14.0327 20.0823 14.1644 20.0147C14.2961 19.947 14.4098 19.8489 14.496 19.7286L20.6659 11.1739C20.7802 11.0186 20.6689 10.8018 20.4784 10.8018Z" fill="#40A9FF"/>
<path d="M15 2.33594C7.75195 2.33594 1.875 8.21289 1.875 15.4609C1.875 22.709 7.75195 28.5859 15 28.5859C22.248 28.5859 28.125 22.709 28.125 15.4609C28.125 8.21289 22.248 2.33594 15 2.33594ZM15 26.3594C8.98242 26.3594 4.10156 21.4785 4.10156 15.4609C4.10156 9.44336 8.98242 4.5625 15 4.5625C21.0176 4.5625 25.8984 9.44336 25.8984 15.4609C25.8984 21.4785 21.0176 26.3594 15 26.3594Z" fill="#40A9FF"/>
</svg>
