<svg width="119" height="36" viewBox="0 0 119 36" fill="none" xmlns="http://www.w3.org/2000/svg">
<path d="M5.41689 16.2726L7.72922 13.9602L7.73163 13.9578H12.0819L10.3509 15.6888L9.90403 16.1357L8.13149 17.9082L8.35102 18.1283L18.2812 28.058L28.431 17.9082L26.6579 16.1357L26.533 16.0102L24.4806 13.9578H28.8309L28.8333 13.9602L30.6456 15.7726L32.7812 17.9082L18.2812 32.4082L3.78125 17.9082L5.41689 16.2726ZM18.2812 3.4082L26.6597 11.7866H22.3094L18.2812 7.75844L14.2531 11.7866H9.90283L18.2812 3.4082Z" fill="#BAE7FF"/>
<path d="M8.13211 17.9084L9.90466 16.1358L10.3516 15.6889L8.62123 13.958H7.73225L7.72984 13.9604L5.41751 16.2727L7.63696 18.4813L8.13211 17.9084Z" fill="url(#paint0_linear)"/>
<path d="M26.6568 16.1358L28.4299 17.9084L28.2544 18.0839L28.255 18.0845L30.6445 15.7728L28.8322 13.9604L28.8298 13.958H28.6537L26.5319 16.0104L26.6568 16.1358Z" fill="url(#paint1_linear)"/>
<path d="M7.72704 13.958L7.72945 13.9604L9.90427 16.1358L18.2815 24.5125L28.8359 13.958H7.72704Z" fill="#BAE7FF"/>
<path d="M47.3594 10.4082V26.4082H50.1406V15.3926H50.2891L54.7109 26.3613H56.7891L61.2109 15.416H61.3594V26.4082H64.1406V10.4082H60.5938L55.8438 22.002H55.6563L50.9063 10.4082H47.3594ZM70.625 26.6504C72.5078 26.6504 73.6328 25.7676 74.1484 24.7598H74.2422V26.4082H76.9609V18.377C76.9609 15.2051 74.375 14.252 72.0859 14.252C69.5625 14.252 67.625 15.377 67 17.5645L69.6406 17.9395C69.9219 17.1191 70.7188 16.416 72.1016 16.416C73.4141 16.416 74.1328 17.0879 74.1328 18.2676V18.3145C74.1328 19.127 73.2812 19.166 71.1641 19.3926C68.8359 19.6426 66.6094 20.3379 66.6094 23.041C66.6094 25.4004 68.3359 26.6504 70.625 26.6504ZM71.3594 24.5723C70.1797 24.5723 69.3359 24.0332 69.3359 22.9941C69.3359 21.9082 70.2813 21.4551 71.5469 21.2754C72.2891 21.1738 73.7734 20.9863 74.1406 20.6895V22.1035C74.1406 23.4395 73.0625 24.5723 71.3594 24.5723ZM82.6328 19.377C82.6328 17.6426 83.6797 16.6426 85.1719 16.6426C86.6328 16.6426 87.5078 17.6035 87.5078 19.2051V26.4082H90.3359V18.7676C90.3438 15.8926 88.7031 14.252 86.2266 14.252C84.4297 14.252 83.1953 15.1113 82.6484 16.4473H82.5078V14.4082H79.8047V26.4082H82.6328V19.377ZM99.2031 14.4082H96.8359V11.5332H94.0078V14.4082H92.3047V16.5957H94.0078V23.2676C93.9922 25.5254 95.6328 26.6348 97.7578 26.5723C98.5625 26.5488 99.1172 26.3926 99.4219 26.291L98.9453 24.0801C98.7891 24.1191 98.4688 24.1895 98.1172 24.1895C97.4062 24.1895 96.8359 23.9395 96.8359 22.7988V16.5957H99.2031V14.4082ZM101.568 26.4082H104.396V14.4082H101.568V26.4082ZM102.99 12.7051C103.889 12.7051 104.623 12.0176 104.623 11.1738C104.623 10.3223 103.889 9.63477 102.99 9.63477C102.084 9.63477 101.35 10.3223 101.35 11.1738C101.35 12.0176 102.084 12.7051 102.99 12.7051ZM116.789 17.5801C116.398 15.5488 114.773 14.252 111.961 14.252C109.07 14.252 107.102 15.6738 107.109 17.8926C107.102 19.6426 108.18 20.7988 110.484 21.2754L112.531 21.7051C113.633 21.9473 114.148 22.3926 114.148 23.0723C114.148 23.8926 113.258 24.5098 111.914 24.5098C110.617 24.5098 109.773 23.9473 109.531 22.8691L106.773 23.1348C107.125 25.3379 108.977 26.6426 111.922 26.6426C114.922 26.6426 117.039 25.0879 117.047 22.8145C117.039 21.1035 115.938 20.0566 113.672 19.5645L111.625 19.127C110.406 18.8535 109.922 18.4316 109.93 17.7363C109.922 16.9238 110.82 16.3613 112 16.3613C113.305 16.3613 113.992 17.0723 114.211 17.8613L116.789 17.5801Z" fill="#BAE7FF"/>
<defs>
<linearGradient id="paint0_linear" x1="9.40712" y1="14.4972" x2="6.34895" y2="17.5553" gradientUnits="userSpaceOnUse">
<stop stop-color="#023B95"/>
<stop offset="0.9637" stop-color="#096CD9" stop-opacity="0"/>
</linearGradient>
<linearGradient id="paint1_linear" x1="27.0476" y1="14.5363" x2="29.5204" y2="17.3464" gradientUnits="userSpaceOnUse">
<stop stop-color="#023B95"/>
<stop offset="1" stop-color="#096DD9" stop-opacity="0"/>
</linearGradient>
</defs>
</svg>
