<svg width="48" height="49" viewBox="0 0 48 49" fill="none" xmlns="http://www.w3.org/2000/svg">
<g clip-path="url(#clip0)">
<g clip-path="url(#clip1)">
<path d="M45.2154 31.5671H39.644V23.4242C39.644 23.1885 39.4511 22.9957 39.2154 22.9957H25.9297V17.8528H31.7154C32.1868 17.8528 32.5725 17.4671 32.5725 16.9957V1.5671C32.5725 1.09568 32.1868 0.709961 31.7154 0.709961H16.2868C15.8154 0.709961 15.4297 1.09568 15.4297 1.5671V16.9957C15.4297 17.4671 15.8154 17.8528 16.2868 17.8528H22.0725V22.9957H8.78683C8.55112 22.9957 8.35826 23.1885 8.35826 23.4242V31.5671H2.78683C2.3154 31.5671 1.92969 31.9528 1.92969 32.4242V47.8528C1.92969 48.3242 2.3154 48.71 2.78683 48.71H18.2154C18.6868 48.71 19.0725 48.3242 19.0725 47.8528V32.4242C19.0725 31.9528 18.6868 31.5671 18.2154 31.5671H12.2154V26.8528H35.7868V31.5671H29.7868C29.3154 31.5671 28.9297 31.9528 28.9297 32.4242V47.8528C28.9297 48.3242 29.3154 48.71 29.7868 48.71H45.2154C45.6868 48.71 46.0726 48.3242 46.0726 47.8528V32.4242C46.0726 31.9528 45.6868 31.5671 45.2154 31.5671ZM15.0011 35.6385V44.6385H6.00112V35.6385H15.0011ZM19.5011 13.7814V4.78139H28.5011V13.7814H19.5011ZM42.0011 44.6385H33.0011V35.6385H42.0011V44.6385Z" fill="#1890FF"/>
</g>
</g>
<defs>
<clipPath id="clip0">
<rect width="48" height="48" fill="white" transform="translate(0 0.709961)"/>
</clipPath>
<clipPath id="clip1">
<rect width="48" height="48" fill="white" transform="translate(0 0.709961)"/>
</clipPath>
</defs>
</svg>
