<svg width="48" height="49" viewBox="0 0 48 49" fill="none" xmlns="http://www.w3.org/2000/svg">
<g clip-path="url(#clip0)">
<path d="M42.4291 17.4209H31.2863V6.27804C31.2863 5.80661 30.9006 5.4209 30.4291 5.4209H5.57199C5.10056 5.4209 4.71484 5.80661 4.71484 6.27804V31.1352C4.71484 31.6066 5.10056 31.9923 5.57199 31.9923H16.7148V43.1352C16.7148 43.6066 17.1006 43.9923 17.572 43.9923H42.4291C42.9006 43.9923 43.2863 43.6066 43.2863 43.1352V18.278C43.2863 17.8066 42.9006 17.4209 42.4291 17.4209ZM16.7148 18.278V28.3495H8.3577V9.06376H27.6434V17.4209H17.572C17.1006 17.4209 16.7148 17.8066 16.7148 18.278ZM27.6434 21.0638V28.3495H20.3577V21.0638H27.6434ZM39.6434 40.3495H20.3577V31.9923H30.4291C30.9006 31.9923 31.2863 31.6066 31.2863 31.1352V21.0638H39.6434V40.3495Z" fill="#FAAD14"/>
</g>
<defs>
<clipPath id="clip0">
<rect width="48" height="48" fill="white" transform="translate(0 0.709961)"/>
</clipPath>
</defs>
</svg>
