<svg width="281" height="49" viewBox="0 0 281 49" fill="none" xmlns="http://www.w3.org/2000/svg">
<path d="M0.310547 4.14502C0.310547 1.93588 2.10141 0.14502 4.31055 0.14502H44.3105C46.5197 0.14502 48.3105 1.93588 48.3105 4.14502V44.145C48.3105 46.3542 46.5197 48.145 44.3105 48.145H4.31055C2.10141 48.145 0.310547 46.3542 0.310547 44.145V4.14502Z" fill="#1F1F1F"/>
<path d="M24.3105 30.7839C15.4263 30.7839 8.47046 27.7537 8.47046 23.897C8.47046 20.0403 15.4263 17.01 24.3105 17.01C33.1946 17.01 40.1505 20.0403 40.1505 23.897C40.1505 27.7537 33.1946 30.7839 24.3105 30.7839ZM24.3105 18.3874C15.6329 18.3874 9.84785 21.2111 9.84785 23.897C9.84785 26.5829 15.6329 29.4065 24.3105 29.4065C32.988 29.4065 38.7731 26.5829 38.7731 23.897C38.7731 21.2111 32.988 18.3874 24.3105 18.3874Z" fill="#61DAFB"/>
<path d="M18.1816 38.0841C17.4929 38.0841 16.9419 37.9464 16.391 37.602C13.0164 35.6737 13.9117 28.1669 18.3193 20.4535C20.3854 16.8723 22.9336 13.842 25.4129 11.9137C28.0988 9.84758 30.5092 9.22776 32.1621 10.1919C33.8838 11.1561 34.5037 13.5665 34.0905 16.9412C33.6772 20.1092 32.2998 23.8281 30.2338 27.4093C28.1677 30.9905 25.6195 34.0208 23.1402 35.9492C21.3496 37.3265 19.6278 38.0841 18.1816 38.0841ZM30.4404 11.0872C29.3385 11.0872 27.8922 11.7071 26.3082 12.9467C23.9666 14.8062 21.5562 17.6987 19.559 21.1422C15.2202 28.649 14.807 35.1227 17.0797 36.4312C18.2505 37.1199 20.1788 36.5001 22.3138 34.8472C24.6553 32.9878 27.0658 30.0952 29.063 26.6518C31.0602 23.2083 32.3687 19.6959 32.7819 16.7345C33.1263 13.9798 32.7131 12.0514 31.5423 11.3627C31.1979 11.225 30.8536 11.0872 30.4404 11.0872Z" fill="#61DAFB"/>
<path d="M30.5084 38.0842C27.0649 38.0842 22.1063 33.8831 18.3874 27.3405C13.9109 19.6271 13.0155 12.1204 16.3902 10.192C19.7648 8.26366 25.8253 12.7402 30.3018 20.4536C32.3679 24.0348 33.7453 27.7538 34.1585 30.9218C34.6406 34.2964 33.9519 36.6379 32.2302 37.671C31.6792 37.9464 31.1282 38.0842 30.5084 38.0842ZM17.0789 11.3628C14.8062 12.6713 15.2194 19.1451 19.5582 26.6518C23.8969 34.1586 29.2688 37.7398 31.5415 36.4313C32.7122 35.7426 33.1255 33.8143 32.7811 31.0595C32.3679 28.0981 31.0594 24.5858 29.0622 21.1423C24.7234 13.6355 19.3515 10.0543 17.0789 11.3628Z" fill="#61DAFB"/>
<path d="M24.3095 26.6509C25.8309 26.6509 27.0643 25.4176 27.0643 23.8961C27.0643 22.3747 25.8309 21.1414 24.3095 21.1414C22.788 21.1414 21.5547 22.3747 21.5547 23.8961C21.5547 25.4176 22.788 26.6509 24.3095 26.6509Z" fill="#61DAFB"/>
<path d="M58.3105 4.14502C58.3105 1.93588 60.1014 0.14502 62.3105 0.14502H102.311C104.52 0.14502 106.311 1.93588 106.311 4.14502V44.145C106.311 46.3542 104.52 48.145 102.311 48.145H62.3105C60.1014 48.145 58.3105 46.3542 58.3105 44.145V4.14502Z" fill="#1F1F1F"/>
<path fill-rule="evenodd" clip-rule="evenodd" d="M92.5955 28.8524C92.7223 28.7796 92.8277 28.6747 92.9011 28.5484C92.9745 28.422 93.0134 28.2785 93.0139 28.1324L93.0289 23.3099C93.0293 23.1637 93.0682 23.0203 93.1417 22.8939C93.2151 22.7675 93.3205 22.6627 93.4472 22.5899L96.0614 21.0882C96.1881 21.0154 96.3317 20.9773 96.4778 20.9775C96.6239 20.9778 96.7674 21.0164 96.8938 21.0896C97.0203 21.1628 97.1253 21.2679 97.1983 21.3945C97.2713 21.5211 97.3097 21.6646 97.3097 21.8107V30.5782C97.3097 30.7248 97.271 30.8688 97.1975 30.9956C97.1241 31.1225 97.0185 31.2277 96.8914 31.3007L87.0255 36.9674C86.8995 37.0397 86.7568 37.0779 86.6115 37.078C86.4662 37.0781 86.3234 37.0403 86.1972 36.9682L78.4547 32.5399C78.3272 32.467 78.2211 32.3617 78.1474 32.2347C78.0736 32.1077 78.0348 31.9634 78.0347 31.8165V27.3957C78.0347 27.3907 78.0405 27.3874 78.0455 27.3899C78.0497 27.3924 78.0555 27.3899 78.0555 27.384V27.379C78.0555 27.3757 78.0572 27.3724 78.0605 27.3707L84.4372 23.7074C84.443 23.704 84.4405 23.6949 84.4339 23.6949C84.4321 23.6949 84.4304 23.6942 84.4292 23.6929C84.4279 23.6917 84.4272 23.69 84.4272 23.6882L84.4397 19.354C84.4403 19.2075 84.4022 19.0634 84.3293 18.9362C84.2564 18.8091 84.1513 18.7034 84.0245 18.6299C83.8977 18.5563 83.7538 18.5175 83.6072 18.5174C83.4606 18.5172 83.3166 18.5558 83.1897 18.629L78.4505 21.3599C78.3241 21.4327 78.1807 21.471 78.0347 21.471C77.8888 21.471 77.7454 21.4327 77.6189 21.3599L72.8647 18.6224C72.7381 18.5494 72.5944 18.5111 72.4483 18.5112C72.3021 18.5113 72.1586 18.5499 72.032 18.623C71.9055 18.6961 71.8004 18.8012 71.7273 18.9278C71.6542 19.0543 71.6156 19.1979 71.6155 19.344V27.1774C71.6156 27.3234 71.5774 27.4668 71.5046 27.5934C71.4318 27.72 71.327 27.8252 71.2008 27.8985C71.0745 27.9719 70.9312 28.0107 70.7852 28.0113C70.6392 28.0118 70.4957 27.974 70.3689 27.9015L67.7305 26.3932C67.6028 26.3202 67.4966 26.2147 67.4228 26.0873C67.349 25.96 67.3103 25.8154 67.3105 25.6682L67.3339 11.9765C67.3342 11.8306 67.3728 11.6873 67.446 11.5609C67.5191 11.4346 67.6241 11.3297 67.7505 11.2567C67.8769 11.1837 68.0203 11.1452 68.1662 11.145C68.3122 11.1448 68.4556 11.183 68.5822 11.2557L77.6197 16.4465C77.746 16.5191 77.8891 16.5572 78.0347 16.5572C78.1803 16.5572 78.3234 16.5191 78.4497 16.4465L87.4847 11.2557C87.6115 11.1829 87.7552 11.1447 87.9013 11.145C88.0475 11.1453 88.191 11.184 88.3175 11.2573C88.444 11.3306 88.549 11.4359 88.6219 11.5625C88.6948 11.6892 88.7332 11.8329 88.733 11.979V25.674C88.7331 25.8205 88.6945 25.9645 88.6212 26.0913C88.5479 26.2182 88.4425 26.3234 88.3155 26.3965L83.5839 29.1215C83.4568 29.1948 83.3513 29.3003 83.278 29.4274C83.2048 29.5545 83.1664 29.6987 83.1667 29.8454C83.1671 29.9921 83.2061 30.1361 83.28 30.2629C83.3538 30.3897 83.4598 30.4947 83.5872 30.5674L86.1972 32.0532C86.3233 32.125 86.466 32.1626 86.6112 32.1623C86.7563 32.1621 86.8989 32.1239 87.0247 32.0515L92.5955 28.8524V28.8524ZM93.143 16.5674C93.1432 16.7147 93.1824 16.8595 93.2566 16.9867C93.3309 17.114 93.4376 17.2193 93.5659 17.2919C93.6941 17.3645 93.8393 17.4018 93.9867 17.4C94.1341 17.3982 94.2783 17.3573 94.4047 17.2815L96.9047 15.7815C97.0281 15.7076 97.1303 15.6029 97.2013 15.4778C97.2722 15.3526 97.3096 15.2112 97.3097 15.0674V12.0107C97.3094 11.8634 97.2701 11.7188 97.1958 11.5916C97.1215 11.4645 97.0147 11.3593 96.8865 11.2868C96.7583 11.2143 96.6131 11.1771 96.4659 11.1789C96.3186 11.1808 96.1744 11.2217 96.048 11.2974L93.548 12.7974C93.4246 12.8713 93.3225 12.976 93.2515 13.1011C93.1805 13.2263 93.1432 13.3677 93.143 13.5115V16.5682V16.5674Z" fill="#007FFF"/>
<path d="M116.311 4.14502C116.311 1.93588 118.101 0.14502 120.311 0.14502H160.311C162.52 0.14502 164.311 1.93588 164.311 4.14502V44.145C164.311 46.3542 162.52 48.145 160.311 48.145H120.311C118.101 48.145 116.311 46.3542 116.311 44.145V4.14502Z" fill="#1F1F1F"/>
<path d="M128.47 40.4649C126.261 40.4649 124.47 38.6741 124.47 36.4649V12.7849C124.47 10.5758 126.261 8.78491 128.47 8.78491H152.15C154.36 8.78491 156.15 10.5758 156.15 12.7849V36.4649C156.15 38.6741 154.36 40.4649 152.15 40.4649H128.47Z" fill="#FFD600"/>
<path d="M145.184 32.4984C145.793 33.4875 146.454 34.4352 147.856 34.4352C149.034 34.4352 149.652 33.85 149.652 33.0404C149.652 32.0716 149.013 31.7275 147.717 31.1634L147.007 30.8607C144.958 29.9912 143.594 28.9018 143.594 26.6006C143.594 24.4798 145.218 22.8659 147.755 22.8659C149.562 22.8659 150.86 23.4915 151.796 25.1301L149.584 26.5443C149.097 25.6748 148.571 25.3325 147.755 25.3325C146.923 25.3325 146.396 25.8579 146.396 26.5443C146.396 27.3926 146.924 27.7358 148.142 28.2612L148.852 28.5639C151.268 29.5926 152.63 30.6433 152.63 33.0052C152.63 35.5502 150.62 36.945 147.922 36.945C145.283 36.945 143.785 35.6206 142.95 33.9812L145.184 32.4984ZM134.988 32.5705C135.433 33.3678 136.11 33.9812 137.083 33.9812C138.014 33.9812 138.55 33.6133 138.55 32.1833V22.865H141.483V32.6339C141.483 35.5968 139.765 36.945 137.255 36.945C134.987 36.945 133.35 35.4085 132.683 33.9812L134.988 32.5705Z" fill="#000001"/>
<path d="M174.311 4.14502C174.311 1.93588 176.101 0.14502 178.311 0.14502H218.311C220.52 0.14502 222.311 1.93588 222.311 4.14502V44.145C222.311 46.3542 220.52 48.145 218.311 48.145H178.311C176.101 48.145 174.311 46.3542 174.311 44.145V4.14502Z" fill="#1F1F1F"/>
<path d="M209.311 9.74487H187.311C185.101 9.74487 183.311 11.5357 183.311 13.7449V35.7449C183.311 37.954 185.101 39.7449 187.311 39.7449H209.311C211.52 39.7449 213.311 37.954 213.311 35.7449V13.7449C213.311 11.5357 211.52 9.74487 209.311 9.74487Z" fill="#1976D2"/>
<path d="M201.219 23.0784H190.166V25.7984H194.13V38.0784H197.271V25.7984H201.219V23.0784Z" fill="#141414"/>
<path d="M210.972 26.4814C210.972 26.4814 209.483 25.4881 207.799 25.4881C206.116 25.4881 205.51 26.2881 205.51 27.1431C205.51 29.3497 211.661 29.1289 211.661 33.5697C211.661 40.4106 202.283 37.3764 202.283 37.3764V34.0947C202.283 34.0947 204.076 35.4464 206.227 35.4464C208.378 35.4464 208.296 34.0397 208.296 33.8464C208.296 31.8056 202.2 31.8056 202.2 27.2814C202.2 21.1306 211.082 23.5572 211.082 23.5572L210.972 26.4814Z" fill="#141414"/>
<path d="M232.311 4.14502C232.311 1.93588 234.101 0.14502 236.311 0.14502H276.311C278.52 0.14502 280.311 1.93588 280.311 4.14502V44.145C280.311 46.3542 278.52 48.145 276.311 48.145H236.311C234.101 48.145 232.311 46.3542 232.311 44.145V4.14502Z" fill="#1F1F1F"/>
<g clip-path="url(#clip0_109183_285183)">
<path d="M251.312 39.145C254.073 39.145 256.312 36.905 256.312 34.145V29.145H251.312C248.553 29.145 246.312 31.385 246.312 34.145C246.312 36.905 248.553 39.145 251.312 39.145Z" fill="#0ACF83"/>
<path d="M246.312 24.145C246.312 21.385 248.553 19.145 251.312 19.145H256.312V29.145H251.312C248.553 29.145 246.312 26.905 246.312 24.145Z" fill="#A259FF"/>
<path d="M246.312 14.145C246.312 11.385 248.553 9.14502 251.312 9.14502H256.312V19.145H251.312C248.553 19.145 246.312 16.905 246.312 14.145Z" fill="#F24E1E"/>
<path d="M256.312 9.14502H261.313C264.073 9.14502 266.313 11.385 266.313 14.145C266.313 16.905 264.073 19.145 261.313 19.145H256.312V9.14502Z" fill="#FF7262"/>
<path d="M266.313 24.145C266.313 26.905 264.073 29.145 261.313 29.145C258.553 29.145 256.312 26.905 256.312 24.145C256.312 21.385 258.553 19.145 261.313 19.145C264.073 19.145 266.313 21.385 266.313 24.145Z" fill="#1ABCFE"/>
</g>
<defs>
<clipPath id="clip0_109183_285183">
<rect width="20.004" height="30" fill="white" transform="translate(246.311 9.14502)"/>
</clipPath>
</defs>
</svg>
