<svg width="56" height="55" viewBox="0 0 56 55" fill="none" xmlns="http://www.w3.org/2000/svg">
<rect x="1" y="0.5" width="54" height="54" rx="27" fill="white"/>
<path d="M42.0331 31.2587C43.8041 31.2587 44.8872 33.2454 43.8855 34.7071C43.4661 35.3195 42.985 35.9018 42.4419 36.4448L37.1548 41.732C32.4107 46.476 24.7175 46.476 19.9735 41.732L14.5581 36.3166C9.81397 31.5725 9.81397 23.8794 14.5581 19.1353L19.8452 13.8481C24.5893 9.10401 32.2824 9.10401 37.0266 13.8481L42.4419 19.2635C42.9699 19.7914 43.439 20.3556 43.8478 20.9484C44.8343 22.3754 43.7784 24.3244 42.0437 24.3244C41.4403 24.3244 40.8656 24.0739 40.4553 23.632L33.9116 16.5995C30.9399 13.6279 26.1234 13.6279 23.1502 16.5995L17.3125 22.4418C14.3409 25.415 14.3409 30.233 17.3125 33.2031L23.0899 38.9806C26.0616 41.9522 30.8781 41.9522 33.8513 38.9806L40.4101 31.9632C40.8309 31.5137 41.4192 31.2587 42.0331 31.2587Z" fill="#5B84FA"/>
<path d="M35.1379 30.7833L31.4935 34.4277C29.8402 36.0809 27.1612 36.0809 25.5079 34.4277L21.8635 30.7833C20.2102 29.13 20.2102 26.451 21.8635 24.7977L25.5079 21.1532C27.1612 19.5 29.8402 19.5 31.4935 21.1532L35.1379 24.7977C36.7912 26.4525 36.7912 29.13 35.1379 30.7833Z" fill="#A9EEF5"/>
<rect x="1" y="0.5" width="54" height="54" rx="27" stroke="#F0F0F0"/>
</svg>
