<svg width="48" height="49" viewBox="0 0 48 49" fill="none" xmlns="http://www.w3.org/2000/svg">
<g clip-path="url(#clip0)">
<path d="M17.7846 4.77804H14.7846C14.5489 4.77804 14.356 4.9709 14.356 5.20661V8.20661C14.356 8.44233 14.5489 8.63518 14.7846 8.63518H17.7846C18.0203 8.63518 18.2132 8.44233 18.2132 8.20661V5.20661C18.2132 4.9709 18.0203 4.77804 17.7846 4.77804ZM15.4275 41.4209H12.4275C12.1917 41.4209 11.9989 41.6138 11.9989 41.8495V44.8495C11.9989 45.0852 12.1917 45.278 12.4275 45.278H15.4275C15.6632 45.278 15.856 45.0852 15.856 44.8495V41.8495C15.856 41.6138 15.6632 41.4209 15.4275 41.4209ZM43.4989 30.4923H40.4989C40.2632 30.4923 40.0703 30.6852 40.0703 30.9209V33.9209C40.0703 34.1566 40.2632 34.3495 40.4989 34.3495H43.4989C43.7346 34.3495 43.9275 34.1566 43.9275 33.9209V30.9209C43.9275 30.6852 43.7346 30.4923 43.4989 30.4923ZM6.85603 15.7066H3.85603C3.62031 15.7066 3.42746 15.8995 3.42746 16.1352V19.1352C3.42746 19.3709 3.62031 19.5638 3.85603 19.5638H6.85603C7.09174 19.5638 7.2846 19.3709 7.2846 19.1352V16.1352C7.2846 15.8995 7.09174 15.7066 6.85603 15.7066ZM6.85603 24.278H3.85603C3.62031 24.278 3.42746 24.4709 3.42746 24.7066V27.7066C3.42746 27.9423 3.62031 28.1352 3.85603 28.1352H6.85603C7.09174 28.1352 7.2846 27.9423 7.2846 27.7066V24.7066C7.2846 24.4709 7.09174 24.278 6.85603 24.278ZM6.85603 32.8495H3.85603C3.62031 32.8495 3.42746 33.0423 3.42746 33.278V36.278C3.42746 36.5138 3.62031 36.7066 3.85603 36.7066H6.85603C7.09174 36.7066 7.2846 36.5138 7.2846 36.278V33.278C7.2846 33.0423 7.09174 32.8495 6.85603 32.8495ZM6.85603 41.4209H3.85603C3.62031 41.4209 3.42746 41.6138 3.42746 41.8495V44.8495C3.42746 45.0852 3.62031 45.278 3.85603 45.278H6.85603C7.09174 45.278 7.2846 45.0852 7.2846 44.8495V41.8495C7.2846 41.6138 7.09174 41.4209 6.85603 41.4209ZM23.9989 41.4209H20.9989C20.7632 41.4209 20.5703 41.6138 20.5703 41.8495V44.8495C20.5703 45.0852 20.7632 45.278 20.9989 45.278H23.9989C24.2346 45.278 24.4275 45.0852 24.4275 44.8495V41.8495C24.4275 41.6138 24.2346 41.4209 23.9989 41.4209ZM32.5703 41.4209H29.5703C29.3346 41.4209 29.1417 41.6138 29.1417 41.8495V44.8495C29.1417 45.0852 29.3346 45.278 29.5703 45.278H32.5703C32.806 45.278 32.9989 45.0852 32.9989 44.8495V41.8495C32.9989 41.6138 32.806 41.4209 32.5703 41.4209ZM40.0703 26.2066C40.0703 26.4423 40.2632 26.6352 40.4989 26.6352H43.4989C43.7346 26.6352 43.9275 26.4423 43.9275 26.2066V17.0995C43.9275 10.2959 38.4096 4.77804 31.606 4.77804H22.4989C22.2632 4.77804 22.0703 4.9709 22.0703 5.20661V8.20661C22.0703 8.44233 22.2632 8.63518 22.4989 8.63518H31.606C36.2828 8.63518 40.0703 12.4227 40.0703 17.0995V26.2066ZM9.21317 2.4209H1.49888C1.26317 2.4209 1.07031 2.61376 1.07031 2.84947V10.5638C1.07031 10.7995 1.26317 10.9923 1.49888 10.9923H9.21317C9.44888 10.9923 9.64174 10.7995 9.64174 10.5638V2.84947C9.64174 2.61376 9.44888 2.4209 9.21317 2.4209ZM6.64174 7.86376C6.64174 7.9334 6.58281 7.99233 6.51317 7.99233H4.19888C4.12924 7.99233 4.07031 7.9334 4.07031 7.86376V5.54947C4.07031 5.47983 4.12924 5.4209 4.19888 5.4209H6.51317C6.58281 5.4209 6.64174 5.47983 6.64174 5.54947V7.86376V7.86376ZM45.856 39.0638H38.1417C37.906 39.0638 37.7132 39.2566 37.7132 39.4923V47.2066C37.7132 47.4423 37.906 47.6352 38.1417 47.6352H45.856C46.0917 47.6352 46.2846 47.4423 46.2846 47.2066V39.4923C46.2846 39.2566 46.0917 39.0638 45.856 39.0638ZM43.2846 44.5066C43.2846 44.5763 43.2257 44.6352 43.156 44.6352H40.8417C40.7721 44.6352 40.7132 44.5763 40.7132 44.5066V42.1923C40.7132 42.1227 40.7721 42.0638 40.8417 42.0638H43.156C43.2257 42.0638 43.2846 42.1227 43.2846 42.1923V44.5066Z" fill="#52C41A"/>
</g>
<defs>
<clipPath id="clip0">
<rect width="48" height="48" fill="white" transform="translate(0 0.709961)"/>
</clipPath>
</defs>
</svg>
